<svg width="33" height="33" viewBox="0 0 33 33" fill="none" xmlns="http://www.w3.org/2000/svg">
<path d="M12.4372 32.5C11.9329 32.5 11.5075 32.1245 11.4449 31.624L10.9787 27.8943C10.9329 27.5284 10.6864 27.2235 10.3563 27.0591C10.2031 26.9827 10.0543 26.9005 9.90989 26.8125C9.75751 26.7196 9.60656 26.6234 9.45704 26.524C9.16618 26.3306 8.79842 26.2857 8.4764 26.421L4.97232 27.8933C4.50831 28.0883 3.9717 27.908 3.71953 27.4724L0.134649 21.2804C-0.118227 20.8436 -0.00598788 20.2868 0.396367 19.9821L3.43813 17.6787C3.70852 17.4739 3.83564 17.1384 3.83564 16.7992V15.7024C3.83564 15.3622 3.70802 15.0257 3.43684 14.8204L0.396366 12.5179C-0.00598839 12.2132 -0.118227 11.6564 0.134649 11.2196L3.71953 5.02755C3.9717 4.59198 4.50831 4.4117 4.97232 4.60666L8.47535 6.07853C8.79794 6.21407 9.16605 6.16823 9.45929 5.97732C9.61271 5.87743 9.76941 5.78082 9.92939 5.6875C10.0788 5.60034 10.2282 5.51891 10.3776 5.44319C10.6978 5.28099 10.9319 4.98024 10.9764 4.62416L11.4449 0.875966C11.5075 0.375537 11.9329 0 12.4372 0H19.6091C20.1134 0 20.5388 0.375536 20.6014 0.875965L21.0676 4.60569C21.1133 4.97159 21.3599 5.27656 21.6901 5.44074C21.8437 5.51715 21.993 5.5994 22.138 5.6875C22.2898 5.77973 22.4398 5.87517 22.588 5.97382C22.8798 6.16804 23.2488 6.21386 23.572 6.07808L27.074 4.60666C27.538 4.4117 28.0746 4.59198 28.3268 5.02755L31.9116 11.2196C32.1645 11.6564 32.0523 12.2132 31.6499 12.5179L28.6094 14.8204C28.3383 15.0257 28.2106 15.3622 28.2106 15.7024V16.7976C28.2106 17.1334 28.3058 17.4805 28.5735 17.6832L31.6093 19.9821C32.0117 20.2868 32.1239 20.8436 31.871 21.2804L28.2875 27.4701C28.0347 27.9067 27.4964 28.0866 27.0319 27.8898L23.5721 26.4238C23.2489 26.2869 22.8795 26.3323 22.5853 26.5238C22.4324 26.6233 22.2763 26.7195 22.1169 26.8125C21.9675 26.8997 21.8181 26.9811 21.6686 27.0568C21.3485 27.219 21.1144 27.5198 21.0699 27.8758L20.6014 31.624C20.5388 32.1245 20.1134 32.5 19.6091 32.5H12.4372ZM16.1044 21.9375C17.6752 21.9375 19.0159 21.3823 20.1263 20.2719C21.2367 19.1615 21.7919 17.8208 21.7919 16.25C21.7919 14.6792 21.2367 13.3385 20.1263 12.2281C19.0159 11.1177 17.6752 10.5625 16.1044 10.5625C14.5065 10.5625 13.1588 11.1177 12.0614 12.2281C10.964 13.3385 10.4158 14.6792 10.4169 16.25C10.418 17.8208 10.9667 19.1615 12.063 20.2719C13.1594 21.3823 14.5065 21.9375 16.1044 21.9375Z" fill="white"/>
</svg>
