<svg width="509" height="262" viewBox="0 0 509 262" fill="none" xmlns="http://www.w3.org/2000/svg">
<path d="M-5.5 1C41 3.83333 136.2 17 145 47C156 84.5 238.5 -9 356 28C473.5 65 456.5 39 482.5 28C503.3 19.2 519.167 37 524.5 47" stroke="url(#paint0_linear_1365_186)"/>
<path d="M0.5 68C47.5 69.5 171.8 99.9 293 209.5C414.2 319.1 497.833 228.5 524.5 169.5" stroke="url(#paint1_linear_1365_186)"/>
<path d="M-5.21436 4.19043C40.1904 6.92456 132.896 19.844 143.758 49.4386C156.715 86.1761 238.209 -1.20481 353 36.6428C467.79 74.4904 454.038 49.9547 480.676 38.7011C502.361 29.5428 518.786 44.7142 524.5 52.8333" stroke="url(#paint2_linear_1365_186)"/>
<path d="M-4.92847 7.38086C39.3811 10.0158 129.593 22.688 142.517 51.8773C157.431 87.8523 237.919 6.59039 350 45.2856C462.081 83.9809 451.577 60.9094 478.852 49.4023C501.423 39.8856 518.405 52.4285 524.5 58.6666" stroke="url(#paint3_linear_1365_186)"/>
<path d="M-4.64282 10.5713C38.5715 13.107 126.289 25.532 141.275 54.3159C158.146 89.5284 237.629 14.3856 347 53.9284C456.371 93.4713 449.115 71.8641 477.029 60.1034C500.485 50.2284 518.024 60.1427 524.5 64.4999" stroke="url(#paint4_linear_1365_186)"/>
<path d="M-4.35718 13.7617C37.7619 16.1982 122.986 28.376 140.033 56.7546C158.862 91.2046 237.338 22.1808 344 62.5712C450.662 102.962 446.654 82.8189 475.205 70.8046C499.546 60.5712 517.643 67.857 524.5 70.3331" stroke="url(#paint5_linear_1365_186)"/>
<path d="M-4.07153 16.9521C36.9523 19.2894 119.682 31.22 138.792 59.1932C159.577 92.8807 237.048 29.976 341 71.2141C444.952 112.452 444.192 93.7736 473.381 81.5057C498.607 70.9141 517.262 75.5712 524.5 76.1664" stroke="url(#paint6_linear_1365_186)"/>
<path d="M-3.78564 20.1431C36.1429 22.3812 116.379 34.0645 137.55 61.6324C160.293 94.5574 236.757 37.7716 338 79.8574C439.243 121.943 441.731 104.729 471.557 92.2074C497.669 81.2574 516.881 83.2859 524.5 82.0002" stroke="url(#paint7_linear_1365_186)"/>
<path d="M-3.5 23.3335C35.3333 25.4724 113.075 36.9085 136.308 64.071C161.008 96.2335 236.467 45.5668 335 88.5002C433.533 131.433 439.269 115.683 469.733 102.908C496.731 91.6002 516.5 91.0002 524.5 87.8335" stroke="url(#paint8_linear_1365_186)"/>
<path d="M-3.21436 26.5239C34.5237 28.5636 109.771 39.7525 135.067 66.5096C161.724 97.9096 236.176 53.362 332 97.143C427.824 140.924 436.808 126.638 467.909 113.61C495.792 101.943 516.119 98.7144 524.5 93.6668" stroke="url(#paint9_linear_1365_186)"/>
<path d="M-2.92847 29.7144C33.7144 31.6548 106.468 42.5965 133.825 68.9483C162.439 99.5858 235.886 61.1572 329 105.786C422.114 150.414 434.347 137.593 466.086 124.311C494.854 112.286 515.738 106.429 524.5 99.5001" stroke="url(#paint10_linear_1365_186)"/>
<path d="M-2.64282 32.9048C32.9048 34.7461 103.164 45.4405 132.583 71.3869C163.155 101.262 235.595 68.9524 326 114.429C416.405 159.905 431.885 148.548 464.262 135.012C493.915 122.629 515.357 114.143 524.5 105.333" stroke="url(#paint11_linear_1365_186)"/>
<path d="M-2.35718 36.0952C32.0952 37.8373 99.8607 48.2845 131.342 73.8256C163.87 102.938 235.305 76.7476 323 123.071C410.695 169.395 429.423 159.502 462.438 145.713C492.977 132.971 514.976 121.857 524.5 111.167" stroke="url(#paint12_linear_1365_186)"/>
<path d="M-2.07153 39.2856C31.2856 40.9285 96.557 51.1285 130.1 76.2642C164.586 104.614 235.014 84.5428 320 131.714C404.986 178.886 426.962 170.457 460.614 156.414C492.038 143.314 514.595 129.571 524.5 117" stroke="url(#paint13_linear_1365_186)"/>
<path d="M-1.78564 42.4761C30.4763 44.0197 93.2536 53.9725 128.858 78.7029C165.301 106.29 234.724 92.338 317 140.357C399.276 188.376 424.5 181.412 458.791 167.115C491.1 153.657 514.214 137.286 524.5 122.833" stroke="url(#paint14_linear_1365_186)"/>
<path d="M-1.5 45.6665C29.6667 47.1109 89.95 56.8165 127.617 81.1415C166.017 107.967 234.433 100.133 314 149C393.567 197.867 422.039 192.366 456.967 177.816C490.161 164 513.833 145 524.5 128.667" stroke="url(#paint15_linear_1365_186)"/>
<path d="M-1.21436 48.8569C28.8571 50.2022 86.6464 59.6605 126.375 83.5801C166.732 109.643 234.143 107.928 311 157.643C387.857 207.357 419.577 203.321 455.143 188.518C489.223 174.343 513.452 152.714 524.5 134.5" stroke="url(#paint16_linear_1365_186)"/>
<path d="M-0.928467 52.0479C28.0477 53.2939 83.343 62.505 125.133 86.0193C167.448 111.319 233.852 115.724 308 166.286C382.148 216.848 417.116 214.276 453.319 199.219C488.284 184.686 513.072 160.429 524.5 140.334" stroke="url(#paint17_linear_1365_186)"/>
<path d="M-0.642822 55.2383C27.2381 56.3851 80.0393 65.349 123.892 88.4579C168.163 112.995 233.562 123.519 305 174.929C376.438 226.338 414.654 225.231 451.495 209.92C487.346 195.029 512.691 168.143 524.5 146.167" stroke="url(#paint18_linear_1365_186)"/>
<path d="M-0.357178 58.4287C26.4285 59.4763 76.7357 68.193 122.65 90.8966C168.879 114.672 233.271 131.314 302 183.572C370.729 235.829 412.193 236.186 449.671 220.622C486.407 205.372 512.309 175.857 524.5 152" stroke="url(#paint19_linear_1365_186)"/>
<path d="M-0.0715332 61.6191C25.6189 62.5676 73.432 71.037 121.408 93.3352C169.594 116.348 232.981 139.11 299 192.214C365.019 245.319 409.731 247.141 447.848 231.323C485.469 215.714 511.928 183.572 524.5 157.833" stroke="url(#paint20_linear_1365_186)"/>
<path d="M0.214355 64.8096C24.8096 65.6588 70.1286 73.881 120.167 95.7739C170.31 118.024 232.691 146.905 296 200.857C359.31 254.81 407.27 258.095 446.024 242.024C484.53 226.057 511.548 191.286 524.5 163.667" stroke="url(#paint21_linear_1365_186)"/>
<defs>
<linearGradient id="paint0_linear_1365_186" x1="259.5" y1="1" x2="259.5" y2="56.0544" gradientUnits="userSpaceOnUse">
<stop stop-color="#003E65"/>
<stop offset="0.293269" stop-color="#E046FF"/>
<stop offset="0.586538" stop-color="#2C3A43"/>
<stop offset="0.923077" stop-color="#0078C4"/>
</linearGradient>
<linearGradient id="paint1_linear_1365_186" x1="262.5" y1="68" x2="262.5" y2="260.974" gradientUnits="userSpaceOnUse">
<stop stop-color="#003E65"/>
<stop offset="0.293269" stop-color="#E046FF"/>
<stop offset="0.586538" stop-color="#2C3A43"/>
<stop offset="0.923077" stop-color="#0078C4"/>
</linearGradient>
<linearGradient id="paint2_linear_1365_186" x1="259.643" y1="4.19043" x2="259.643" y2="58.6669" gradientUnits="userSpaceOnUse">
<stop stop-color="#003E65"/>
<stop offset="0.293269" stop-color="#E046FF"/>
<stop offset="0.586538" stop-color="#2C3A43"/>
<stop offset="0.923077" stop-color="#0078C4"/>
</linearGradient>
<linearGradient id="paint3_linear_1365_186" x1="259.786" y1="7.38086" x2="259.786" y2="66.7892" gradientUnits="userSpaceOnUse">
<stop stop-color="#003E65"/>
<stop offset="0.293269" stop-color="#E046FF"/>
<stop offset="0.586538" stop-color="#2C3A43"/>
<stop offset="0.923077" stop-color="#0078C4"/>
</linearGradient>
<linearGradient id="paint4_linear_1365_186" x1="259.929" y1="10.5713" x2="259.929" y2="76.6637" gradientUnits="userSpaceOnUse">
<stop stop-color="#003E65"/>
<stop offset="0.293269" stop-color="#E046FF"/>
<stop offset="0.586538" stop-color="#2C3A43"/>
<stop offset="0.923077" stop-color="#0078C4"/>
</linearGradient>
<linearGradient id="paint5_linear_1365_186" x1="260.071" y1="13.7617" x2="260.071" y2="86.5821" gradientUnits="userSpaceOnUse">
<stop stop-color="#003E65"/>
<stop offset="0.293269" stop-color="#E046FF"/>
<stop offset="0.586538" stop-color="#2C3A43"/>
<stop offset="0.923077" stop-color="#0078C4"/>
</linearGradient>
<linearGradient id="paint6_linear_1365_186" x1="260.214" y1="16.9521" x2="260.214" y2="96.5441" gradientUnits="userSpaceOnUse">
<stop stop-color="#003E65"/>
<stop offset="0.293269" stop-color="#E046FF"/>
<stop offset="0.586538" stop-color="#2C3A43"/>
<stop offset="0.923077" stop-color="#0078C4"/>
</linearGradient>
<linearGradient id="paint7_linear_1365_186" x1="260.357" y1="20.1431" x2="260.357" y2="106.55" gradientUnits="userSpaceOnUse">
<stop stop-color="#003E65"/>
<stop offset="0.293269" stop-color="#E046FF"/>
<stop offset="0.586538" stop-color="#2C3A43"/>
<stop offset="0.923077" stop-color="#0078C4"/>
</linearGradient>
<linearGradient id="paint8_linear_1365_186" x1="260.5" y1="23.3335" x2="260.5" y2="116.598" gradientUnits="userSpaceOnUse">
<stop stop-color="#003E65"/>
<stop offset="0.293269" stop-color="#E046FF"/>
<stop offset="0.586538" stop-color="#2C3A43"/>
<stop offset="0.923077" stop-color="#0078C4"/>
</linearGradient>
<linearGradient id="paint9_linear_1365_186" x1="260.643" y1="26.5239" x2="260.643" y2="126.688" gradientUnits="userSpaceOnUse">
<stop stop-color="#003E65"/>
<stop offset="0.293269" stop-color="#E046FF"/>
<stop offset="0.586538" stop-color="#2C3A43"/>
<stop offset="0.923077" stop-color="#0078C4"/>
</linearGradient>
<linearGradient id="paint10_linear_1365_186" x1="260.786" y1="29.7144" x2="260.786" y2="136.818" gradientUnits="userSpaceOnUse">
<stop stop-color="#003E65"/>
<stop offset="0.293269" stop-color="#E046FF"/>
<stop offset="0.586538" stop-color="#2C3A43"/>
<stop offset="0.923077" stop-color="#0078C4"/>
</linearGradient>
<linearGradient id="paint11_linear_1365_186" x1="260.929" y1="32.9048" x2="260.929" y2="146.988" gradientUnits="userSpaceOnUse">
<stop stop-color="#003E65"/>
<stop offset="0.293269" stop-color="#E046FF"/>
<stop offset="0.586538" stop-color="#2C3A43"/>
<stop offset="0.923077" stop-color="#0078C4"/>
</linearGradient>
<linearGradient id="paint12_linear_1365_186" x1="261.071" y1="36.0952" x2="261.071" y2="157.197" gradientUnits="userSpaceOnUse">
<stop stop-color="#003E65"/>
<stop offset="0.293269" stop-color="#E046FF"/>
<stop offset="0.586538" stop-color="#2C3A43"/>
<stop offset="0.923077" stop-color="#0078C4"/>
</linearGradient>
<linearGradient id="paint13_linear_1365_186" x1="261.214" y1="39.2856" x2="261.214" y2="167.441" gradientUnits="userSpaceOnUse">
<stop stop-color="#003E65"/>
<stop offset="0.293269" stop-color="#E046FF"/>
<stop offset="0.586538" stop-color="#2C3A43"/>
<stop offset="0.923077" stop-color="#0078C4"/>
</linearGradient>
<linearGradient id="paint14_linear_1365_186" x1="261.357" y1="42.4761" x2="261.357" y2="177.72" gradientUnits="userSpaceOnUse">
<stop stop-color="#003E65"/>
<stop offset="0.293269" stop-color="#E046FF"/>
<stop offset="0.586538" stop-color="#2C3A43"/>
<stop offset="0.923077" stop-color="#0078C4"/>
</linearGradient>
<linearGradient id="paint15_linear_1365_186" x1="261.5" y1="45.6665" x2="261.5" y2="188.032" gradientUnits="userSpaceOnUse">
<stop stop-color="#003E65"/>
<stop offset="0.293269" stop-color="#E046FF"/>
<stop offset="0.586538" stop-color="#2C3A43"/>
<stop offset="0.923077" stop-color="#0078C4"/>
</linearGradient>
<linearGradient id="paint16_linear_1365_186" x1="261.643" y1="48.8569" x2="261.643" y2="198.375" gradientUnits="userSpaceOnUse">
<stop stop-color="#003E65"/>
<stop offset="0.293269" stop-color="#E046FF"/>
<stop offset="0.586538" stop-color="#2C3A43"/>
<stop offset="0.923077" stop-color="#0078C4"/>
</linearGradient>
<linearGradient id="paint17_linear_1365_186" x1="261.786" y1="52.0479" x2="261.786" y2="208.748" gradientUnits="userSpaceOnUse">
<stop stop-color="#003E65"/>
<stop offset="0.293269" stop-color="#E046FF"/>
<stop offset="0.586538" stop-color="#2C3A43"/>
<stop offset="0.923077" stop-color="#0078C4"/>
</linearGradient>
<linearGradient id="paint18_linear_1365_186" x1="261.929" y1="55.2383" x2="261.929" y2="219.146" gradientUnits="userSpaceOnUse">
<stop stop-color="#003E65"/>
<stop offset="0.293269" stop-color="#E046FF"/>
<stop offset="0.586538" stop-color="#2C3A43"/>
<stop offset="0.923077" stop-color="#0078C4"/>
</linearGradient>
<linearGradient id="paint19_linear_1365_186" x1="262.071" y1="58.4287" x2="262.071" y2="229.57" gradientUnits="userSpaceOnUse">
<stop stop-color="#003E65"/>
<stop offset="0.293269" stop-color="#E046FF"/>
<stop offset="0.586538" stop-color="#2C3A43"/>
<stop offset="0.923077" stop-color="#0078C4"/>
</linearGradient>
<linearGradient id="paint20_linear_1365_186" x1="262.214" y1="61.6191" x2="262.214" y2="240.017" gradientUnits="userSpaceOnUse">
<stop stop-color="#003E65"/>
<stop offset="0.293269" stop-color="#E046FF"/>
<stop offset="0.586538" stop-color="#2C3A43"/>
<stop offset="0.923077" stop-color="#0078C4"/>
</linearGradient>
<linearGradient id="paint21_linear_1365_186" x1="262.357" y1="64.8096" x2="262.357" y2="250.486" gradientUnits="userSpaceOnUse">
<stop stop-color="#003E65"/>
<stop offset="0.293269" stop-color="#E046FF"/>
<stop offset="0.586538" stop-color="#2C3A43"/>
<stop offset="0.923077" stop-color="#0078C4"/>
</linearGradient>
</defs>
</svg>
