<svg width="338" height="125" viewBox="0 0 338 125" fill="none" xmlns="http://www.w3.org/2000/svg">
<path d="M193.648 46.7648C188.346 40.7836 180.632 37 172 37C155.982 37 143 49.982 143 66H150.25C150.25 53.9809 159.981 44.25 172 44.25C178.627 44.25 184.506 47.252 188.482 51.9305L181.663 58.75H201V39.4129L193.648 46.7648ZM172 87.75C165.373 87.75 159.494 84.748 155.518 80.0695L162.337 73.25H143V92.5871L150.352 85.2352C155.654 91.2164 163.379 95 172 95C188.018 95 201 82.018 201 66H193.75C193.75 78.0191 184.019 87.75 172 87.75Z" fill="white"/>
<rect width="86" height="125" rx="15" fill="url(#paint0_linear_862_340)"/>
<path d="M21 8.5H66C69.5899 8.5 72.5 11.4101 72.5 15C72.5 18.5899 69.5899 21.5 66 21.5H21C17.4101 21.5 14.5 18.5899 14.5 15C14.5 11.4101 17.4101 8.5 21 8.5Z" fill="#1E1E1E" fill-opacity="0.5" stroke="#565656"/>
<path d="M32.6165 18V12.9091H34.3366C34.736 12.9091 35.0625 12.9812 35.3161 13.1254C35.5713 13.2679 35.7602 13.4609 35.8828 13.7045C36.0054 13.9482 36.0668 14.2199 36.0668 14.5199C36.0668 14.8198 36.0054 15.0924 35.8828 15.3377C35.7618 15.583 35.5746 15.7785 35.321 15.9244C35.0675 16.0685 34.7427 16.1406 34.3466 16.1406H33.1136V15.5938H34.3267C34.6001 15.5938 34.8197 15.5465 34.9854 15.4521C35.1512 15.3576 35.2713 15.23 35.3459 15.0692C35.4221 14.9068 35.4602 14.7237 35.4602 14.5199C35.4602 14.3161 35.4221 14.1338 35.3459 13.973C35.2713 13.8123 35.1503 13.6863 34.983 13.5952C34.8156 13.5024 34.5935 13.456 34.3168 13.456H33.233V18H32.6165ZM37.8239 18.0895C37.5819 18.0895 37.3623 18.0439 37.1651 17.9528C36.9679 17.86 36.8113 17.7266 36.6953 17.5526C36.5793 17.3769 36.5213 17.1648 36.5213 16.9162C36.5213 16.6974 36.5644 16.5201 36.6506 16.3842C36.7367 16.2467 36.8519 16.139 36.9961 16.0611C37.1403 15.9832 37.2994 15.9252 37.4734 15.8871C37.649 15.8473 37.8255 15.8158 38.0028 15.7926C38.2349 15.7628 38.4229 15.7404 38.5671 15.7255C38.713 15.7089 38.819 15.6816 38.8853 15.6435C38.9533 15.6054 38.9872 15.5391 38.9872 15.4446V15.4247C38.9872 15.1795 38.9201 14.9889 38.7859 14.853C38.6533 14.7171 38.4519 14.6491 38.1818 14.6491C37.9018 14.6491 37.6822 14.7105 37.5231 14.8331C37.364 14.9557 37.2521 15.0866 37.1875 15.2259L36.6307 15.027C36.7301 14.795 36.8627 14.6143 37.0284 14.4851C37.1958 14.3542 37.3781 14.263 37.5753 14.2116C37.7742 14.1586 37.9697 14.1321 38.1619 14.1321C38.2846 14.1321 38.4254 14.147 38.5845 14.1768C38.7453 14.205 38.9002 14.2638 39.0494 14.3533C39.2002 14.4428 39.3253 14.5779 39.4247 14.7585C39.5242 14.9392 39.5739 15.1811 39.5739 15.4844V18H38.9872V17.483H38.9574C38.9176 17.5658 38.8513 17.6545 38.7585 17.7489C38.6657 17.8434 38.5423 17.9238 38.3881 17.9901C38.234 18.0563 38.0459 18.0895 37.8239 18.0895ZM37.9134 17.5625C38.1454 17.5625 38.3409 17.5169 38.5 17.4258C38.6608 17.3346 38.7817 17.217 38.8629 17.0728C38.9458 16.9286 38.9872 16.777 38.9872 16.6179V16.081C38.9624 16.1108 38.9077 16.1381 38.8232 16.163C38.7403 16.1862 38.6442 16.2069 38.5348 16.2251C38.4271 16.2417 38.3219 16.2566 38.2191 16.2699C38.118 16.2815 38.036 16.2914 37.973 16.2997C37.8206 16.3196 37.678 16.3519 37.5455 16.3967C37.4145 16.4397 37.3085 16.5052 37.2273 16.593C37.1477 16.6792 37.108 16.7969 37.108 16.946C37.108 17.1499 37.1834 17.304 37.3342 17.4084C37.4866 17.5111 37.6797 17.5625 37.9134 17.5625ZM41.8064 18.0795C41.4882 18.0795 41.2073 17.9992 40.9637 17.8384C40.7201 17.676 40.5295 17.4473 40.392 17.1523C40.2544 16.8557 40.1856 16.5052 40.1856 16.1009C40.1856 15.6998 40.2544 15.3518 40.392 15.0568C40.5295 14.7618 40.7209 14.534 40.9662 14.3732C41.2115 14.2125 41.4948 14.1321 41.8163 14.1321C42.0649 14.1321 42.2613 14.1735 42.4055 14.2564C42.5513 14.3376 42.6623 14.4304 42.7386 14.5348C42.8165 14.6375 42.8769 14.7221 42.92 14.7884H42.9697V12.9091H43.5564V18H42.9896V17.4134H42.92C42.8769 17.483 42.8156 17.5708 42.7361 17.6768C42.6565 17.7812 42.543 17.8749 42.3955 17.9577C42.248 18.0389 42.0517 18.0795 41.8064 18.0795ZM41.8859 17.5526C42.1213 17.5526 42.3201 17.4912 42.4825 17.3686C42.6449 17.2443 42.7684 17.0728 42.8529 16.854C42.9374 16.6336 42.9797 16.3793 42.9797 16.0909C42.9797 15.8059 42.9383 15.5565 42.8554 15.3427C42.7725 15.1272 42.6499 14.9599 42.4875 14.8406C42.3251 14.7196 42.1246 14.6591 41.8859 14.6591C41.6374 14.6591 41.4302 14.7229 41.2645 14.8505C41.1004 14.9764 40.977 15.148 40.8941 15.3651C40.8129 15.5805 40.7723 15.8224 40.7723 16.0909C40.7723 16.3627 40.8137 16.6096 40.8966 16.8317C40.9811 17.0521 41.1054 17.2277 41.2695 17.3587C41.4352 17.4879 41.6407 17.5526 41.8859 17.5526ZM45.874 18.0795C45.5559 18.0795 45.275 17.9992 45.0314 17.8384C44.7878 17.676 44.5972 17.4473 44.4596 17.1523C44.3221 16.8557 44.2533 16.5052 44.2533 16.1009C44.2533 15.6998 44.3221 15.3518 44.4596 15.0568C44.5972 14.7618 44.7886 14.534 45.0338 14.3732C45.2791 14.2125 45.5625 14.1321 45.884 14.1321C46.1326 14.1321 46.3289 14.1735 46.4731 14.2564C46.619 14.3376 46.73 14.4304 46.8062 14.5348C46.8841 14.6375 46.9446 14.7221 46.9877 14.7884H47.0374V12.9091H47.624V18H47.0573V17.4134H46.9877C46.9446 17.483 46.8833 17.5708 46.8037 17.6768C46.7242 17.7812 46.6107 17.8749 46.4632 17.9577C46.3157 18.0389 46.1193 18.0795 45.874 18.0795ZM45.9536 17.5526C46.1889 17.5526 46.3878 17.4912 46.5502 17.3686C46.7126 17.2443 46.836 17.0728 46.9206 16.854C47.0051 16.6336 47.0473 16.3793 47.0473 16.0909C47.0473 15.8059 47.0059 15.5565 46.9231 15.3427C46.8402 15.1272 46.7176 14.9599 46.5552 14.8406C46.3927 14.7196 46.1922 14.6591 45.9536 14.6591C45.705 14.6591 45.4979 14.7229 45.3321 14.8505C45.1681 14.9764 45.0446 15.148 44.9618 15.3651C44.8806 15.5805 44.84 15.8224 44.84 16.0909C44.84 16.3627 44.8814 16.6096 44.9642 16.8317C45.0488 17.0521 45.1731 17.2277 45.3371 17.3587C45.5028 17.4879 45.7083 17.5526 45.9536 17.5526ZM49.0866 12.9091V18H48.4999V12.9091H49.0866ZM51.4819 18.0795C51.114 18.0795 50.7967 17.9983 50.5299 17.8359C50.2647 17.6719 50.0601 17.4432 49.9159 17.1499C49.7734 16.8549 49.7021 16.5118 49.7021 16.1207C49.7021 15.7296 49.7734 15.3849 49.9159 15.0866C50.0601 14.7867 50.2606 14.553 50.5174 14.3857C50.776 14.2166 51.0776 14.1321 51.4223 14.1321C51.6211 14.1321 51.8175 14.1652 52.0114 14.2315C52.2053 14.2978 52.3818 14.4055 52.5409 14.5547C52.7 14.7022 52.8267 14.8977 52.9212 15.1413C53.0157 15.3849 53.0629 15.6849 53.0629 16.0412V16.2898H50.1197V15.7827H52.4663C52.4663 15.5672 52.4232 15.375 52.337 15.206C52.2525 15.0369 52.1315 14.9035 51.9741 14.8058C51.8183 14.708 51.6344 14.6591 51.4223 14.6591C51.1886 14.6591 50.9864 14.7171 50.8157 14.8331C50.6467 14.9474 50.5166 15.0966 50.4255 15.2805C50.3343 15.4645 50.2887 15.6617 50.2887 15.8722V16.2102C50.2887 16.4986 50.3385 16.743 50.4379 16.9435C50.539 17.1424 50.679 17.294 50.858 17.3984C51.037 17.5012 51.2449 17.5526 51.4819 17.5526C51.636 17.5526 51.7752 17.531 51.8995 17.4879C52.0255 17.4432 52.134 17.3769 52.2252 17.2891C52.3163 17.1996 52.3868 17.0885 52.4365 16.956L53.0032 17.1151C52.9436 17.3073 52.8433 17.4763 52.7025 17.6222C52.5616 17.7663 52.3876 17.879 52.1804 17.9602C51.9733 18.0398 51.7404 18.0795 51.4819 18.0795Z" fill="white"/>
<path d="M62.5627 105.104C64.9648 109.006 63.8653 111.592 62.4732 112.902C61.8399 113.498 60.8768 113.507 60.1575 113.018C55.1459 109.612 53.6576 100.102 53.5557 95.4664L52.3289 92.6415L52.3006 92.3182L34.7034 55.413L34.351 55.118L32.7436 51.6748C25.8321 47.3273 22.0348 37.5162 21 33.154C27.7078 35.1736 32.7042 46.2482 34.3639 51.533L35.9431 54.6529L35.9714 54.9762L53.2445 91.9098L53.5969 92.2048L54.7954 94.7064C56.1157 96.1113 59.5175 100.158 62.5627 105.104Z" fill="url(#paint1_linear_862_340)"/>
<path d="M299 86C320.539 86 338 68.5391 338 47C338 25.4609 320.539 8 299 8C277.461 8 260 25.4609 260 47C260 68.5391 277.461 86 299 86Z" fill="#0088CC"/>
<path fill-rule="evenodd" clip-rule="evenodd" d="M288.061 34H309.975C310.813 34 311.511 34.1397 312.348 34.559C313.325 34.9782 313.883 35.6769 314.163 36.2358C314.163 36.2358 314.163 36.3755 314.302 36.3755C314.721 37.0742 315 37.9127 315 38.8908C315 39.7293 314.86 40.5677 314.302 41.4061L300.484 65.1616C300.205 65.7205 299.646 66 298.948 66C298.39 66 297.832 65.7205 297.413 65.1616L283.874 41.4061C283.595 40.8472 283.036 40.1485 283.036 39.0306C282.897 38.0524 283.176 37.214 283.595 36.3755C284.013 35.5371 284.711 34.8384 285.688 34.559C286.526 34 287.503 34 288.061 34ZM297.273 37.3537H288.061C287.503 37.3537 287.224 37.3537 287.084 37.4934C286.805 37.6332 286.665 37.7729 286.526 38.0524C286.386 38.1921 286.386 38.4716 286.386 38.7511C286.386 38.8908 286.526 39.0306 286.805 39.5895L297.273 57.7555V37.3537ZM300.623 37.3537V57.8952L311.231 39.5895C311.371 39.31 311.371 39.0306 311.371 38.7511C311.371 38.4716 311.371 38.1921 311.231 38.0524C311.092 37.9127 311.092 37.7729 310.952 37.7729L310.813 37.6332C310.533 37.4935 310.254 37.4934 309.836 37.4934H300.623V37.3537Z" fill="white"/>
<path d="M278.881 99.3438V97.4545H290.138V99.3438H285.599V112H283.412V99.3438H278.881ZM304.635 104.727C304.635 106.28 304.351 107.616 303.783 108.733C303.215 109.846 302.436 110.703 301.446 111.304C300.462 111.901 299.342 112.199 298.087 112.199C296.828 112.199 295.703 111.901 294.713 111.304C293.729 110.703 292.952 109.843 292.384 108.726C291.816 107.608 291.532 106.276 291.532 104.727C291.532 103.174 291.816 101.841 292.384 100.729C292.952 99.6113 293.729 98.7543 294.713 98.1577C295.703 97.5563 296.828 97.2557 298.087 97.2557C299.342 97.2557 300.462 97.5563 301.446 98.1577C302.436 98.7543 303.215 99.6113 303.783 100.729C304.351 101.841 304.635 103.174 304.635 104.727ZM302.462 104.727C302.462 103.544 302.27 102.547 301.887 101.737C301.508 100.923 300.987 100.307 300.324 99.8906C299.666 99.4692 298.92 99.2585 298.087 99.2585C297.249 99.2585 296.501 99.4692 295.843 99.8906C295.185 100.307 294.664 100.923 294.28 101.737C293.901 102.547 293.712 103.544 293.712 104.727C293.712 105.911 293.901 106.91 294.28 107.724C294.664 108.534 295.185 109.15 295.843 109.571C296.501 109.988 297.249 110.196 298.087 110.196C298.92 110.196 299.666 109.988 300.324 109.571C300.987 109.15 301.508 108.534 301.887 107.724C302.27 106.91 302.462 105.911 302.462 104.727ZM319.112 97.4545V112H317.094L309.701 101.332H309.566V112H307.371V97.4545H309.403L316.803 108.136H316.938V97.4545H319.112Z" fill="white"/>
<defs>
<linearGradient id="paint0_linear_862_340" x1="86" y1="0" x2="-0.727319" y2="124.493" gradientUnits="userSpaceOnUse">
<stop stop-color="#191919" stop-opacity="0.75"/>
<stop offset="1" stop-color="#7F009F"/>
</linearGradient>
<linearGradient id="paint1_linear_862_340" x1="39.0255" y1="31.577" x2="46.3237" y2="114.996" gradientUnits="userSpaceOnUse">
<stop stop-color="white"/>
<stop offset="1" stop-color="#FF0059"/>
</linearGradient>
</defs>
</svg>
