<svg xmlns="http://www.w3.org/2000/svg" width="94" height="232" fill="none"><path fill="#A48347" d="M54.274 106.785C55.517 125.204 51.73 197.609 45.94 226c-5.876-28.815-9.605-101.559-7.769-119.215.904-16.272 5.933-77.97 8.334-106.785 2.373 32.996 6.168 84.938 7.769 106.785"/><path fill="url(#a)" d="M55.03 123.17c.282-11.018 1.271-33.477-9.181-40.115-10.312 6.92-9.04 31.075-9.04 40.115.517 1.836 3.107 5.452 9.322 5.226s8.522-3.578 8.899-5.226"/><path fill="#1B1D19" d="M54.407 122.634c.265-10.638 1.189-32.322-8.584-38.732-9.64 6.683-8.452 30.004-8.452 38.732.484 1.773 2.905 5.264 8.716 5.046s7.968-3.455 8.32-5.046M46.475 135.568h-1.26l-.348-.601-1.037.598.002.003h-.002v4.552h-1.197v-3.715l1.278-2.214h2.564zm3.378.529v4.023h-1.197v-5.308zm-2.011 4.022h-1.383l-2.627-4.551h1.383zm-5.21-3.714-1.305 2.262-.613-.355 1.919-3.324zm9.06.813-.424.395-1.415-1.516v-.852zm-1.839-1.973-1.197-1.284v-2.423h1.197zm-6.021-2.334h-.002v.003l-1.197 2.074v-3.45h1.197v-.004h.797zm4.824 1.05v.851l-.973-1.043v-.852zm-4.745.23h-.08v-1.277l.001-.003h.818zm3.772-.422v.422h-1.208v-1.28h.408zm0-.852-.006-.006h.006zm-.006-.006h-.794l-.405-.433.425-.396zm-1.202 0H44.65l.795-1.377h1.03zm.006-3.172-1.036 1.795h-.818l1.241-2.149zM48.624 204.389c0 1.326-1.075 3.39-2.402 3.39-1.326 0-2.4-2.064-2.4-3.39a2.401 2.401 0 1 1 4.802 0"/><g filter="url(#b)"><path stroke="#F3E7A7" d="M52.296 126.701c-.706 1.13-2.119 3.983-2.119 6.356 0 2.967.142 66.247-4.096 91.954"/></g><g filter="url(#c)"><path stroke="#8F692E" d="M44.104 213.287c-1.412-21.894-1.554-64.918-3.814-85.597-.659-.048-1.836-1.13-1.836-1.13 1.13 3.813 3.814 57.63 3.955 67.517"/></g><g filter="url(#d)"><path stroke="#F3E7A7" d="M48.624 84.609c-.565-12.289-1.695-44.211-1.695-73.591"/></g><g filter="url(#e)"><path stroke="#8F692E" d="M39.866 90.965c.848-2.307 2.627-7.543 2.967-10.029.423-3.107 1.553-20.057 1.553-21.47 0-1.412.706-28.108.848-32.346-.754 12.1-2.317 36.5-2.543 37.29-.226.791-1.318 13.984-1.836 20.481l1.978-13.842"/></g><path fill="#131313" d="M77.347 123.807c3.524 2.643 6.228 2.36 7.816 1.496.89-.484 1.081-1.625.535-2.478-3.106-4.856-12.527-7.776-17.24-8.679l-2.782-1.587-.333-.083-36.149-22.117-.262-.363-3.377-2.034C21.9 81.095 12.18 75.991 7.777 74.297c1.261 6.271 12.144 12.658 17.428 15.067l3.045 1.95.332.084 36.22 21.836.262.363 2.45 1.504c1.294 1.415 5.074 5.137 9.833 8.706"/><path fill="url(#f)" d="M54.867 119.022c-7.345 10.961-14.266 5.038-16.808.706l-2.12-2.966c-2.824-.678-7.862-6.497-10.028-9.322-.188-1.46-.198-5.085 1.271-7.91 1.47-2.825 1.837-4.85 1.837-5.509-.226-1.695.565-3.249.988-3.814.565-.339.895.33.99.707.677-.34 1.035.046 1.13.282.451-.113.847.33.988.565.452-.226.941.282 1.13.565-.188.66-.706 2.034-1.271 2.26s-1.366 1.6-1.695 2.26c0 2.486-.565 7.062-.848 9.04 1.47.113 3.249 1.459 3.955 2.119 1.695-.339 3.72.612 4.52 1.13.706.988 1.893.706 4.379 1.271s2.825 0 4.379-.283l1.553-.282c.791-.339 3.25-.801 4.38-.989 1.694-.452 3.342 0 3.954.283 1.271 0 2.684.988 2.825 1.271.113.226 1.083.094 1.554 0h.926c.453-.155.566.253.566.475.452-.113.565.142.565.283.235.047.706.226.706.565.282 0 .79.085.565.424a5 5 0 0 1-.565.706c-.377.141-1.158.508-1.271.847s-3.27.065-4.944.424c-2.26 0-1.978 3.814-3.61 4.892"/><path fill="url(#g)" d="M54.868 119.022c-7.345 10.961-14.266 5.038-16.809.706l-2.119-2.966c-.289.185-2.705-1.301-3.17-1.643-.565-1.13 1.978-7.204 2.402-7.204 1.695 0 3.149.907 3.735 1.22.706.988 1.892.706 4.378 1.271s2.825 0 4.379-.283l1.554-.282c.79-.339 3.249-.8 4.378-.989 1.696-.452 3.344 0 3.956.283.308-.03.983-.033 1.209.193s.282 3.296.282 4.802h-.565c-2.26 0-1.977 3.814-3.61 4.892"/><path fill="url(#h)" d="M39.558 107.882c-.062-.403-.212-1.289-.31-1.606.016-.117.057-.372.086-.457-.1-.029-.288-.108-.24-.19.058-.104.199-.151.18-.176s-.197-.028-.247.01.019-.131.044-.15.096-.054.078-.079c-.02-.024-.254.054-.2-.005.053-.06.186-.532.574-.59s-.282-.061-.285-.04c-.003.022-.181.02-.125-.062.056-.081.296-.204.346-.241-.056-.023-.14-.083-.025-.138.144-.069.222.009.287-.138.066-.147.172-.266.194-.263.021.003.056-.082 0-.157-.057-.075.011-.087.015-.109.003-.022-.235.079-.366.216-.13.138-.016-.203.08-.256.098-.054 1.154-.575 1.303-.844.15-.27.716-1.284.898-1.303.145-.016.075.308.023.472.192-.1.509-.377.614-.561.06-.104.267.171.167.246.206-.09.63-.326.68-.552.05-.225.071.077.076.257 1.08-.697 1.961-.323 2.078-.646.102-.038.271-.056.132.175-.081.048-.224.16-.144.225.1.081.523.252.768.577.114-.014.356-.021.416.058-.102.038-.313.131-.34.198.199.065.616.221.691.321.089.005.27.024.282.062.013.037-.122.072-.19.085l.564.592c.302.073.902.351.88.883-.128-.144-.436-.423-.638-.38.151.193.466.593.51.653.046.06-.047.075-.1.075.25.132.748.404.743.439s-.304-.057-.454-.108c.206.23.616.703.609.755s-.243-.071-.36-.14c.126.107.372.343.342.428-.034.097-.265-.001-.33-.074.066.113.32.568.28.581-.046.016-.35-.206-.356-.162-.01.066.104.372.17.381-.017.013-.08.025-.197-.028-.118-.052.043.17.138.288-.028.041-.119.081-.257-.081s-.1.239-.064.46c-.026-.033-.085-.097-.123-.084-.046.016.061.522-.041.932s.07.3.013.381c-.045.065-.144-.035-.188-.093.046.096.131.309.101.394-.037.106-.234.235-.25.188s-.617 2.012-1.02 2.335c-.205.344-.636 1.059-.723 1.171-.109.141-.427.499-.515.486-.07-.01-.365.589-.504.89-.028-.012-.083-.048-.076-.1.01-.066-.333.31-.39.391s.013-.087.025-.175c.012-.087-.174.288-.315.336-.113.037-.045-.104.003-.179-.045.001-.17.066-.312.314-.022-.003-.062-.036-.047-.141s-.202.165-.313.314c-.011-.024-.024-.111.016-.266.05-.194-.325.244-.331.288s-.079-.078-.044-.162c.027-.068-.203.12-.322.222a1.5 1.5 0 0 1 .036-.419c.053-.216-.377.304-.415.411s-.204-.297-.188-.406c.012-.088-.084.174-.134.316-.093-.132-.28-.423-.282-.531-.004-.135-.125.25-.19.241-.066-.009-.47-.468-.477-.58-.006-.09-.023.108-.031.219-.188-.198-.566-.616-.57-.706-.006-.09-.107-.037-.157 0-.086-.287-.256-.88-.246-.95-.206-.393-.615-1.279-.614-1.671.008-.111-.003-.358-.114-.463-.138-.131-.167-.872-.218-1.147-.04-.22-.06-.53-.064-.657"/><g filter="url(#i)"><path fill="url(#j)" d="M45.675 187a.87.87 0 0 1-.864-.763l-.031-.247a.55.55 0 0 0-.277-.39.52.52 0 0 0-.473-.045l-.213.09a.89.89 0 0 1-1.114-.374l-.317-.552a.88.88 0 0 1 .229-1.137l.302-.23a.27.27 0 0 0 .098-.217v-.27a.27.27 0 0 0-.098-.217l-.302-.23a.88.88 0 0 1-.23-1.137l.319-.552a.886.886 0 0 1 1.112-.374l.21.089a.54.54 0 0 0 .481-.044.53.53 0 0 0 .272-.385l.03-.242a.88.88 0 0 1 .875-.773h.642c.439 0 .81.327.863.763l.031.247c.02.166.135.303.278.39a.52.52 0 0 0 .472.045l.214-.091a.89.89 0 0 1 1.112.374l.318.553a.88.88 0 0 1-.229 1.137l-.302.23a.27.27 0 0 0-.098.217v.27c0 .082.023.168.09.218l.338.258c.33.251.422.708.215 1.068l-.344.597a.876.876 0 0 1-1.104.369l-.207-.088a.54.54 0 0 0-.48.043.53.53 0 0 0-.272.385l-.03.242a.88.88 0 0 1-.875.773zm.345-2.6q.577 0 .985-.41t.408-.99-.408-.99a1.34 1.34 0 0 0-.985-.41q-.588 0-.99.41a1.36 1.36 0 0 0-.403.99q0 .58.403.99t.99.41"/></g><g filter="url(#k)"><path fill="url(#l)" d="M42.297 151a.545.545 0 0 1-.54-.477l-.02-.154a.35.35 0 0 0-.173-.244.32.32 0 0 0-.295-.028l-.133.056a.554.554 0 0 1-.697-.234l-.198-.344a.55.55 0 0 1 .143-.711l.19-.144a.17.17 0 0 0 .06-.135v-.169a.17.17 0 0 0-.06-.136l-.19-.144a.55.55 0 0 1-.143-.711l.199-.345a.554.554 0 0 1 .695-.233l.132.055c.097.041.209.027.3-.027a.33.33 0 0 0 .17-.241l.019-.151a.55.55 0 0 1 .547-.483h.4c.275 0 .506.205.54.477l.02.154a.35.35 0 0 0 .173.244c.09.054.199.069.295.028l.134-.056a.553.553 0 0 1 .695.233l.199.345a.55.55 0 0 1-.143.711l-.19.144a.17.17 0 0 0-.06.136v.168c0 .052.014.105.055.137l.212.161a.515.515 0 0 1 .134.667l-.215.374a.55.55 0 0 1-.69.23l-.129-.055a.34.34 0 0 0-.3.027.33.33 0 0 0-.17.241l-.019.151a.55.55 0 0 1-.547.483zm.215-1.625q.36 0 .616-.256a.85.85 0 0 0 .255-.619.85.85 0 0 0-.255-.619.84.84 0 0 0-.616-.256.83.83 0 0 0-.618.256.85.85 0 0 0-.252.619q0 .363.252.619a.83.83 0 0 0 .618.256"/></g><g filter="url(#m)"><path fill="url(#n)" d="M44.297 69a.544.544 0 0 1-.54-.477l-.02-.154a.35.35 0 0 0-.173-.244.33.33 0 0 0-.295-.028l-.133.056a.554.554 0 0 1-.697-.234l-.198-.344a.55.55 0 0 1 .143-.711l.19-.144a.17.17 0 0 0 .06-.135v-.17a.17.17 0 0 0-.06-.135l-.19-.144a.55.55 0 0 1-.143-.71l.199-.346a.554.554 0 0 1 .695-.233l.132.055c.097.041.209.027.3-.027a.33.33 0 0 0 .17-.24l.019-.152a.55.55 0 0 1 .547-.483h.4c.275 0 .506.204.54.477l.02.154c.013.104.084.19.173.244.09.054.199.069.295.028l.134-.056a.554.554 0 0 1 .695.233l.199.345a.55.55 0 0 1-.143.711l-.19.144a.17.17 0 0 0-.06.136v.168c0 .052.014.105.055.137l.212.16a.515.515 0 0 1 .134.668l-.215.374a.55.55 0 0 1-.69.23l-.129-.055a.34.34 0 0 0-.3.027.33.33 0 0 0-.17.24l-.019.152a.55.55 0 0 1-.547.483zm.215-1.625q.36 0 .616-.256a.85.85 0 0 0 .255-.619.85.85 0 0 0-.255-.619.84.84 0 0 0-.616-.256.83.83 0 0 0-.618.256.85.85 0 0 0-.252.619q0 .363.252.619t.618.256"/></g><g filter="url(#o)"><path fill="url(#p)" d="M48.837 81.5a.435.435 0 0 1-.432-.382l-.015-.123a.28.28 0 0 0-.139-.195.26.26 0 0 0-.236-.022l-.107.044a.443.443 0 0 1-.556-.187l-.16-.275a.44.44 0 0 1 .115-.569l.152-.115a.13.13 0 0 0 .048-.108v-.135a.14.14 0 0 0-.048-.11l-.152-.114a.44.44 0 0 1-.114-.569l.159-.276a.443.443 0 0 1 .556-.187l.105.045a.27.27 0 0 0 .24-.022.27.27 0 0 0 .137-.193l.015-.12a.44.44 0 0 1 .437-.387h.32c.22 0 .406.164.433.382l.015.123c.01.083.067.151.139.195a.26.26 0 0 0 .236.023l.107-.046a.443.443 0 0 1 .556.187l.16.276a.44.44 0 0 1-.115.569l-.151.115a.14.14 0 0 0-.05.109v.134c0 .042.012.085.045.11l.17.128a.41.41 0 0 1 .107.534l-.172.3a.44.44 0 0 1-.552.184l-.103-.044a.27.27 0 0 0-.24.021.27.27 0 0 0-.137.193l-.015.12a.44.44 0 0 1-.437.387zm.173-1.3a.67.67 0 0 0 .492-.205.68.68 0 0 0 .204-.495.68.68 0 0 0-.204-.495.67.67 0 0 0-.492-.205.67.67 0 0 0-.495.205.68.68 0 0 0-.202.495q0 .29.202.495t.495.205"/></g><g filter="url(#q)"><path fill="url(#r)" d="M50.197 141.954c-1.343 5.577-5.509 6.541-4.668 10.996.673 3.564-2.937 10.137-4.826 12.978.413-.167 3.324-.688 4.355-2.657 1.408-2.692 3.737-3.13 3.234-11.198-.14-2.245 1.913-7.725 1.905-10.119"/></g><g filter="url(#s)"><path fill="url(#t)" d="M49.74 158.313c-1.024 4.314 1.478 6.438-.644 9.213-1.697 2.221-4.75 6.014-4.451 8.634-1.231-1.432-.273-4.822 2.874-10.206.876-1.498 1.383-5.994 2.222-7.641"/></g><g filter="url(#u)"><path fill="url(#v)" d="M47.74 66.313c-1.024 4.314 1.478 6.438-.644 9.213-1.697 2.22-4.75 6.014-4.451 8.634-1.231-1.432-.273-4.822 2.874-10.206.876-1.498 1.383-5.994 2.222-7.641"/></g><circle cx="44.5" cy="106.5" r="5.5" fill="url(#w)" stroke="url(#x)" stroke-width="2"/><path fill="url(#y)" d="M51.404 108.033c-.595-2.445-2.768-3.899-3.406-4.035l.751 2c.147.114.937 1.056 2.274 3.1s2.54 2.192 2.974 2.011c-.616-.007-1.997-.632-2.593-3.076"/><path fill="url(#z)" d="M50.617 110.624c-.975-.428-2.142-1.976-2.243-2.625l.375-1.004c.59 1.66 1.363 1.927 2.243 3.153s1.03 2.458.994 2.921c-.05-.636-.394-2.017-1.37-2.445"/><path fill="url(#A)" d="M40.49 109.806a.73.73 0 0 1-.681-.712l-.005-.219a.43.43 0 0 0-.151-.294.28.28 0 0 0-.303-.054l-.14.066a.464.464 0 0 1-.633-.264l-.226-.636a.79.79 0 0 1 .225-.86l.2-.174a.27.27 0 0 0 .086-.186l.015-.224a.27.27 0 0 0-.06-.197l-.172-.2a.79.79 0 0 1-.103-.883l.312-.598a.463.463 0 0 1 .664-.174l.127.084a.28.28 0 0 0 .313-.01.41.41 0 0 0 .186-.267l.034-.209a.743.743 0 0 1 .785-.62l.036.002a.733.733 0 0 1 .68.713l.006.218a.43.43 0 0 0 .15.294c.082.076.201.102.303.054l.14-.066a.463.463 0 0 1 .633.264l.226.636a.79.79 0 0 1-.225.86l-.199.174a.27.27 0 0 0-.086.187l-.016.224a.27.27 0 0 0 .054.196l.191.222c.201.232.24.563.098.835l-.328.627a.46.46 0 0 1-.658.171l-.126-.083a.28.28 0 0 0-.311.01.4.4 0 0 0-.187.267l-.034.209a.744.744 0 0 1-.785.62zm.185-2.153q.363.025.643-.296a1.33 1.33 0 0 0 .314-.803q.034-.481-.2-.839-.232-.357-.594-.383-.369-.025-.646.296a1.34 1.34 0 0 0-.31.803q-.034.481.196.839.229.357.597.383"/><path fill="url(#B)" d="M20 122.5c4.5-3 9.5-7.333 11.5-10l14 1 2 5.5h-4c-1.5-.667-5.2-3.7-6-.5s-2.667 4.667-3.5 5c.8-1.2.333-3.833 0-5-1.6 3.6-5 4.833-6.5 5 1.2-.8 3.167-4.333 4-6-1.6 2-8.333 4.167-11.5 5"/><path fill="url(#C)" d="M71.5 122c-4.5-3-9.5-7.333-11.5-10l-14.5 1.5 2 5.5c1.5-.667 5.7-4.2 6.5-1s2.667 4.667 3.5 5c-.8-1.2-.333-3.833 0-5 1.6 3.6 5 4.833 6.5 5-1.2-.8-3.167-4.333-4-6 1.6 2 8.333 4.167 11.5 5"/><g filter="url(#D)"><path fill="url(#E)" d="M63 118.5c-.138-.96-2.931-4.4-4.31-6H58c.69.96.747 2.2.69 2.7z"/></g><g filter="url(#F)"><path fill="url(#G)" d="M29 119c.138-.96 3.62-5.4 5-7h.5c-.69.96-1.247 3.2-1.19 3.7z"/></g><g filter="url(#H)"><path fill="url(#I)" d="M61 119.5c-.138-.96-3.62-5.9-5-7.5h-.5c.69.96 1.247 3.7 1.19 4.2z"/></g><g filter="url(#J)"><path fill="url(#K)" d="M31 120c.138-.96 4.12-5.9 5.5-7.5h.5c-.69.96-1.747 3.7-1.69 4.2z"/></g><g filter="url(#L)"><path fill="url(#M)" d="M59 120.5c-.138-.96-4.12-6.9-5.5-8.5H53c.69.96 1.557 4.5 1.5 5z"/></g><g filter="url(#N)"><path fill="url(#O)" d="M33 121c.138-.96 4.62-6.9 6-8.5l.5.5c-.69.96-1.557 3-1.5 3.5z"/></g><path fill="url(#P)" d="M45.215 124a.76.76 0 0 1-.756-.668l-.027-.216a.49.49 0 0 0-.242-.341.45.45 0 0 0-.414-.039l-.186.078a.776.776 0 0 1-.975-.327l-.278-.483a.77.77 0 0 1 .2-.995l.266-.201a.24.24 0 0 0 .085-.19v-.236a.24.24 0 0 0-.086-.19l-.264-.201a.77.77 0 0 1-.2-.995l.278-.483a.775.775 0 0 1 .973-.328l.184.078a.47.47 0 0 0 .421-.038.47.47 0 0 0 .238-.337l.026-.212a.77.77 0 0 1 .766-.676h.56c.385 0 .71.286.757.668l.027.216a.48.48 0 0 0 .242.341.46.46 0 0 0 .413.04l.188-.08a.775.775 0 0 1 .973.327l.279.484a.77.77 0 0 1-.2.995l-.265.201a.24.24 0 0 0-.086.19v.236c0 .072.02.147.078.191l.296.225c.289.22.37.62.189.935l-.302.523a.77.77 0 0 1-.965.323l-.181-.077a.47.47 0 0 0-.421.037.47.47 0 0 0-.238.337l-.026.212a.77.77 0 0 1-.766.676zm.302-2.275q.505 0 .862-.359t.357-.866-.357-.866a1.17 1.17 0 0 0-.862-.359q-.513 0-.866.359a1.2 1.2 0 0 0-.353.866q0 .507.353.866t.866.359"/><path fill="url(#Q)" d="M62.23 109.692C45.495 113.433 35.78 111.661 24 106c.721 1.969 2.164 2.215 2.404 4.677.109 1.108 2.405 1.969 3.126 2.461l26.208 1.231c4.424 1.575 7.293-.165 8.175-1.231 1.346-.788 3.285-.821 4.087-.739-.962-1.181-4.248-2.297-5.77-2.707"/><defs><linearGradient id="a" x1="45.974" x2="45.974" y1="83.055" y2="128.406" gradientUnits="userSpaceOnUse"><stop stop-color="#343636"/><stop offset="1" stop-color="#2C3E3A"/></linearGradient><linearGradient id="f" x1="45.569" x2="45.569" y1="90.114" y2="125.267" gradientUnits="userSpaceOnUse"><stop stop-color="#CB8F5C"/><stop offset="1" stop-color="#AB4A00"/></linearGradient><linearGradient id="g" x1="45.568" x2="45.568" y1="90.114" y2="125.267" gradientUnits="userSpaceOnUse"><stop stop-color="#6C5138"/><stop offset="1" stop-color="#201F1E"/></linearGradient><linearGradient id="h" x1="65.35" x2="42.828" y1="103.267" y2="114.235" gradientUnits="userSpaceOnUse"><stop stop-color="#666"/><stop offset="1" stop-color="#290900"/></linearGradient><linearGradient id="j" x1="42" x2="49.634" y1="182.033" y2="181.068" gradientUnits="userSpaceOnUse"><stop stop-color="#FB9240"/><stop offset="1" stop-color="#8C5936"/></linearGradient><linearGradient id="l" x1="40" x2="44.771" y1="147.896" y2="147.293" gradientUnits="userSpaceOnUse"><stop stop-color="#FB9240"/><stop offset="1" stop-color="#8C5936"/></linearGradient><linearGradient id="n" x1="42" x2="46.771" y1="65.896" y2="65.293" gradientUnits="userSpaceOnUse"><stop stop-color="#8C5936"/><stop offset="1" stop-color="#FB9240"/></linearGradient><linearGradient id="p" x1="47" x2="50.817" y1="79.017" y2="78.534" gradientUnits="userSpaceOnUse"><stop stop-color="#8C5936"/><stop offset="1" stop-color="#FB9240"/></linearGradient><linearGradient id="r" x1="44.3" x2="49.783" y1="153.452" y2="155.78" gradientUnits="userSpaceOnUse"><stop stop-color="#9E5C00"/><stop offset="1" stop-color="#F28E40"/></linearGradient><linearGradient id="t" x1="49.821" x2="44.633" y1="167.42" y2="167.057" gradientUnits="userSpaceOnUse"><stop stop-color="#9E5C00"/><stop offset="1" stop-color="#F28E40"/></linearGradient><linearGradient id="v" x1="47.821" x2="42.633" y1="75.42" y2="75.057" gradientUnits="userSpaceOnUse"><stop stop-color="#9E5C00"/><stop offset="1" stop-color="#F28E40"/></linearGradient><linearGradient id="w" x1="44.5" x2="44.5" y1="100" y2="113" gradientUnits="userSpaceOnUse"><stop stop-color="#5A4332"/><stop offset="1" stop-color="#72553F"/></linearGradient><linearGradient id="x" x1="44.5" x2="44.5" y1="100" y2="113" gradientUnits="userSpaceOnUse"><stop stop-color="#4C3729"/><stop offset="1" stop-color="#4E3829"/></linearGradient><linearGradient id="y" x1="51.523" x2="50.702" y1="111.423" y2="104.345" gradientUnits="userSpaceOnUse"><stop stop-color="#905D3A"/><stop offset="1" stop-color="#AF7B55"/></linearGradient><linearGradient id="z" x1="51.9" x2="49.093" y1="110.017" y2="110.106" gradientUnits="userSpaceOnUse"><stop stop-color="#905D3A"/><stop offset="1" stop-color="#AF7B55"/></linearGradient><linearGradient id="A" x1="40.976" x2="40.512" y1="103.176" y2="109.808" gradientUnits="userSpaceOnUse"><stop stop-color="#AE7B56"/><stop offset="1" stop-color="#7F4B2A"/></linearGradient><linearGradient id="B" x1="31.75" x2="31.75" y1="112.5" y2="123.5" gradientUnits="userSpaceOnUse"><stop stop-color="#A18180"/><stop offset="1" stop-color="#816E67"/></linearGradient><linearGradient id="C" x1="59.75" x2="59.75" y1="112" y2="123" gradientUnits="userSpaceOnUse"><stop stop-color="#A18180"/><stop offset="1" stop-color="#816E67"/></linearGradient><linearGradient id="E" x1="62.828" x2="59.781" y1="113.4" y2="117.569" gradientUnits="userSpaceOnUse"><stop offset=".236" stop-color="#9F927F"/><stop offset="1" stop-color="#D3DEEB"/></linearGradient><linearGradient id="G" x1="29.172" x2="32.219" y1="113.9" y2="118.069" gradientUnits="userSpaceOnUse"><stop offset=".236" stop-color="#9F927F"/><stop offset="1" stop-color="#D3DEEB"/></linearGradient><linearGradient id="I" x1="60.828" x2="57.781" y1="114.4" y2="118.569" gradientUnits="userSpaceOnUse"><stop offset=".236" stop-color="#9F927F"/><stop offset="1" stop-color="#D3DEEB"/></linearGradient><linearGradient id="K" x1="31.172" x2="34.219" y1="114.9" y2="119.069" gradientUnits="userSpaceOnUse"><stop offset=".236" stop-color="#9F927F"/><stop offset="1" stop-color="#D3DEEB"/></linearGradient><linearGradient id="M" x1="58.828" x2="55.781" y1="115.4" y2="119.569" gradientUnits="userSpaceOnUse"><stop offset=".236" stop-color="#9F927F"/><stop offset="1" stop-color="#D3DEEB"/></linearGradient><linearGradient id="O" x1="33.172" x2="36.219" y1="115.9" y2="120.069" gradientUnits="userSpaceOnUse"><stop offset=".236" stop-color="#9F927F"/><stop offset="1" stop-color="#D3DEEB"/></linearGradient><linearGradient id="P" x1="45.5" x2="45.5" y1="117" y2="124" gradientUnits="userSpaceOnUse"><stop stop-color="#FE974C"/><stop offset="1" stop-color="#7F4B2A"/></linearGradient><linearGradient id="Q" x1="46" x2="46" y1="106" y2="115" gradientUnits="userSpaceOnUse"><stop stop-color="#AB9D54"/><stop offset="1" stop-color="#B0A166"/></linearGradient><filter id="b" width="20.732" height="112.256" x="38.788" y="119.637" color-interpolation-filters="sRGB" filterUnits="userSpaceOnUse"><feFlood flood-opacity="0" result="BackgroundImageFix"/><feBlend in="SourceGraphic" in2="BackgroundImageFix" result="shape"/><feGaussianBlur result="effect1_foregroundBlur_1911_401" stdDeviation="3.4"/></filter><filter id="c" width="19.544" height="100.754" x="31.26" y="118.766" color-interpolation-filters="sRGB" filterUnits="userSpaceOnUse"><feFlood flood-opacity="0" result="BackgroundImageFix"/><feBlend in="SourceGraphic" in2="BackgroundImageFix" result="shape"/><feGaussianBlur result="effect1_foregroundBlur_1911_401" stdDeviation="3.1"/></filter><filter id="d" width="16.894" height="87.814" x="39.329" y="3.918" color-interpolation-filters="sRGB" filterUnits="userSpaceOnUse"><feFlood flood-opacity="0" result="BackgroundImageFix"/><feBlend in="SourceGraphic" in2="BackgroundImageFix" result="shape"/><feGaussianBlur result="effect1_foregroundBlur_1911_401" stdDeviation="3.55"/></filter><filter id="e" width="19.937" height="77.649" x="32.596" y="20.289" color-interpolation-filters="sRGB" filterUnits="userSpaceOnUse"><feFlood flood-opacity="0" result="BackgroundImageFix"/><feBlend in="SourceGraphic" in2="BackgroundImageFix" result="shape"/><feGaussianBlur result="effect1_foregroundBlur_1911_401" stdDeviation="3.4"/></filter><filter id="i" width="11.27" height="11.8" x="40.369" y="178.1" color-interpolation-filters="sRGB" filterUnits="userSpaceOnUse"><feFlood flood-opacity="0" result="BackgroundImageFix"/><feColorMatrix in="SourceAlpha" result="hardAlpha" values="0 0 0 0 0 0 0 0 0 0 0 0 0 0 0 0 0 0 127 0"/><feOffset dy="1"/><feGaussianBlur stdDeviation=".95"/><feComposite in2="hardAlpha" operator="out"/><feColorMatrix values="0 0 0 0 0 0 0 0 0 0 0 0 0 0 0 0 0 0 0.1 0"/><feBlend in2="BackgroundImageFix" result="effect1_dropShadow_1911_401"/><feBlend in="SourceGraphic" in2="effect1_dropShadow_1911_401" result="shape"/></filter><filter id="k" width="8.468" height="8.8" x="38.268" y="145.1" color-interpolation-filters="sRGB" filterUnits="userSpaceOnUse"><feFlood flood-opacity="0" result="BackgroundImageFix"/><feColorMatrix in="SourceAlpha" result="hardAlpha" values="0 0 0 0 0 0 0 0 0 0 0 0 0 0 0 0 0 0 127 0"/><feOffset dy="1"/><feGaussianBlur stdDeviation=".95"/><feComposite in2="hardAlpha" operator="out"/><feColorMatrix values="0 0 0 0 0 0 0 0 0 0 0 0 0 0 0 0 0 0 0.1 0"/><feBlend in2="BackgroundImageFix" result="effect1_dropShadow_1911_401"/><feBlend in="SourceGraphic" in2="effect1_dropShadow_1911_401" result="shape"/></filter><filter id="m" width="8.668" height="9" x="40.168" y="63" color-interpolation-filters="sRGB" filterUnits="userSpaceOnUse"><feFlood flood-opacity="0" result="BackgroundImageFix"/><feColorMatrix in="SourceAlpha" result="hardAlpha" values="0 0 0 0 0 0 0 0 0 0 0 0 0 0 0 0 0 0 127 0"/><feOffset dy="1"/><feGaussianBlur stdDeviation="1"/><feComposite in2="hardAlpha" operator="out"/><feColorMatrix values="0 0 0 0 0 0 0 0 0 0 0 0 0 0 0 0 0 0 0.1 0"/><feBlend in2="BackgroundImageFix" result="effect1_dropShadow_1911_401"/><feBlend in="SourceGraphic" in2="effect1_dropShadow_1911_401" result="shape"/></filter><filter id="o" width="7.735" height="8" x="45.134" y="76.5" color-interpolation-filters="sRGB" filterUnits="userSpaceOnUse"><feFlood flood-opacity="0" result="BackgroundImageFix"/><feColorMatrix in="SourceAlpha" result="hardAlpha" values="0 0 0 0 0 0 0 0 0 0 0 0 0 0 0 0 0 0 127 0"/><feOffset dy="1"/><feGaussianBlur stdDeviation="1"/><feComposite in2="hardAlpha" operator="out"/><feColorMatrix values="0 0 0 0 0 0 0 0 0 0 0 0 0 0 0 0 0 0 0.1 0"/><feBlend in2="BackgroundImageFix" result="effect1_dropShadow_1911_401"/><feBlend in="SourceGraphic" in2="effect1_dropShadow_1911_401" result="shape"/></filter><filter id="q" width="13.294" height="27.774" x="38.803" y="141.054" color-interpolation-filters="sRGB" filterUnits="userSpaceOnUse"><feFlood flood-opacity="0" result="BackgroundImageFix"/><feColorMatrix in="SourceAlpha" result="hardAlpha" values="0 0 0 0 0 0 0 0 0 0 0 0 0 0 0 0 0 0 127 0"/><feOffset dy="1"/><feGaussianBlur stdDeviation=".95"/><feComposite in2="hardAlpha" operator="out"/><feColorMatrix values="0 0 0 0 0 0 0 0 0 0 0 0 0 0 0 0 0 0 0.1 0"/><feBlend in2="BackgroundImageFix" result="effect1_dropShadow_1911_401"/><feBlend in="SourceGraphic" in2="effect1_dropShadow_1911_401" result="shape"/></filter><filter id="s" width="9.654" height="21.648" x="42.225" y="157.413" color-interpolation-filters="sRGB" filterUnits="userSpaceOnUse"><feFlood flood-opacity="0" result="BackgroundImageFix"/><feColorMatrix in="SourceAlpha" result="hardAlpha" values="0 0 0 0 0 0 0 0 0 0 0 0 0 0 0 0 0 0 127 0"/><feOffset dy="1"/><feGaussianBlur stdDeviation=".95"/><feComposite in2="hardAlpha" operator="out"/><feColorMatrix values="0 0 0 0 0 0 0 0 0 0 0 0 0 0 0 0 0 0 0.1 0"/><feBlend in2="BackgroundImageFix" result="effect1_dropShadow_1911_401"/><feBlend in="SourceGraphic" in2="effect1_dropShadow_1911_401" result="shape"/></filter><filter id="u" width="9.854" height="21.848" x="40.125" y="65.313" color-interpolation-filters="sRGB" filterUnits="userSpaceOnUse"><feFlood flood-opacity="0" result="BackgroundImageFix"/><feColorMatrix in="SourceAlpha" result="hardAlpha" values="0 0 0 0 0 0 0 0 0 0 0 0 0 0 0 0 0 0 127 0"/><feOffset dy="1"/><feGaussianBlur stdDeviation="1"/><feComposite in2="hardAlpha" operator="out"/><feColorMatrix values="0 0 0 0 0 0 0 0 0 0 0 0 0 0 0 0 0 0 0.1 0"/><feBlend in2="BackgroundImageFix" result="effect1_dropShadow_1911_401"/><feBlend in="SourceGraphic" in2="effect1_dropShadow_1911_401" result="shape"/></filter><filter id="D" width="13" height="14" x="54" y="112.5" color-interpolation-filters="sRGB" filterUnits="userSpaceOnUse"><feFlood flood-opacity="0" result="BackgroundImageFix"/><feColorMatrix in="SourceAlpha" result="hardAlpha" values="0 0 0 0 0 0 0 0 0 0 0 0 0 0 0 0 0 0 127 0"/><feOffset dy="4"/><feGaussianBlur stdDeviation="2"/><feComposite in2="hardAlpha" operator="out"/><feColorMatrix values="0 0 0 0 0 0 0 0 0 0 0 0 0 0 0 0 0 0 0.25 0"/><feBlend in2="BackgroundImageFix" result="effect1_dropShadow_1911_401"/><feBlend in="SourceGraphic" in2="effect1_dropShadow_1911_401" result="shape"/></filter><filter id="F" width="13.5" height="15" x="25" y="112" color-interpolation-filters="sRGB" filterUnits="userSpaceOnUse"><feFlood flood-opacity="0" result="BackgroundImageFix"/><feColorMatrix in="SourceAlpha" result="hardAlpha" values="0 0 0 0 0 0 0 0 0 0 0 0 0 0 0 0 0 0 127 0"/><feOffset dy="4"/><feGaussianBlur stdDeviation="2"/><feComposite in2="hardAlpha" operator="out"/><feColorMatrix values="0 0 0 0 0 0 0 0 0 0 0 0 0 0 0 0 0 0 0.25 0"/><feBlend in2="BackgroundImageFix" result="effect1_dropShadow_1911_401"/><feBlend in="SourceGraphic" in2="effect1_dropShadow_1911_401" result="shape"/></filter><filter id="H" width="13.5" height="15.5" x="51.5" y="112" color-interpolation-filters="sRGB" filterUnits="userSpaceOnUse"><feFlood flood-opacity="0" result="BackgroundImageFix"/><feColorMatrix in="SourceAlpha" result="hardAlpha" values="0 0 0 0 0 0 0 0 0 0 0 0 0 0 0 0 0 0 127 0"/><feOffset dy="4"/><feGaussianBlur stdDeviation="2"/><feComposite in2="hardAlpha" operator="out"/><feColorMatrix values="0 0 0 0 0 0 0 0 0 0 0 0 0 0 0 0 0 0 0.25 0"/><feBlend in2="BackgroundImageFix" result="effect1_dropShadow_1911_401"/><feBlend in="SourceGraphic" in2="effect1_dropShadow_1911_401" result="shape"/></filter><filter id="J" width="14" height="15.5" x="27" y="112.5" color-interpolation-filters="sRGB" filterUnits="userSpaceOnUse"><feFlood flood-opacity="0" result="BackgroundImageFix"/><feColorMatrix in="SourceAlpha" result="hardAlpha" values="0 0 0 0 0 0 0 0 0 0 0 0 0 0 0 0 0 0 127 0"/><feOffset dy="4"/><feGaussianBlur stdDeviation="2"/><feComposite in2="hardAlpha" operator="out"/><feColorMatrix values="0 0 0 0 0 0 0 0 0 0 0 0 0 0 0 0 0 0 0.25 0"/><feBlend in2="BackgroundImageFix" result="effect1_dropShadow_1911_401"/><feBlend in="SourceGraphic" in2="effect1_dropShadow_1911_401" result="shape"/></filter><filter id="L" width="14" height="16.5" x="49" y="112" color-interpolation-filters="sRGB" filterUnits="userSpaceOnUse"><feFlood flood-opacity="0" result="BackgroundImageFix"/><feColorMatrix in="SourceAlpha" result="hardAlpha" values="0 0 0 0 0 0 0 0 0 0 0 0 0 0 0 0 0 0 127 0"/><feOffset dy="4"/><feGaussianBlur stdDeviation="2"/><feComposite in2="hardAlpha" operator="out"/><feColorMatrix values="0 0 0 0 0 0 0 0 0 0 0 0 0 0 0 0 0 0 0.25 0"/><feBlend in2="BackgroundImageFix" result="effect1_dropShadow_1911_401"/><feBlend in="SourceGraphic" in2="effect1_dropShadow_1911_401" result="shape"/></filter><filter id="N" width="14.5" height="16.5" x="29" y="112.5" color-interpolation-filters="sRGB" filterUnits="userSpaceOnUse"><feFlood flood-opacity="0" result="BackgroundImageFix"/><feColorMatrix in="SourceAlpha" result="hardAlpha" values="0 0 0 0 0 0 0 0 0 0 0 0 0 0 0 0 0 0 127 0"/><feOffset dy="4"/><feGaussianBlur stdDeviation="2"/><feComposite in2="hardAlpha" operator="out"/><feColorMatrix values="0 0 0 0 0 0 0 0 0 0 0 0 0 0 0 0 0 0 0.25 0"/><feBlend in2="BackgroundImageFix" result="effect1_dropShadow_1911_401"/><feBlend in="SourceGraphic" in2="effect1_dropShadow_1911_401" result="shape"/></filter></defs></svg>
