<svg width="430" height="430" viewBox="0 0 430 430" fill="none" xmlns="http://www.w3.org/2000/svg">
<g clip-path="url(#clip0_743_9)">
<path d="M382 388C334.951 391.987 167.412 356.291 88 349.313C122.29 340.94 130.862 340.399 132.358 337.409C141.528 337.01 145.15 330.597 145.814 327.441C184.583 326.546 263.878 321.605 270.913 309C279.286 310.196 289.021 315.147 292.842 317.473C348.826 327.441 382.385 339.678 386.206 341.339L382 388Z" fill="#FFC449"/>
<path d="M382 388C356.8 391.2 290.167 380.667 260 375C342.8 379.8 359.167 348.333 357 332C372.2 336 382.867 339.8 386.2 341.3C384.6 364.9 382.667 382.333 382 388Z" fill="#FFB825"/>
<path d="M382 388C375.2 391.2 335.167 386.667 316 384C340 386.5 366 378.5 369.5 375.5C372.3 373.1 375.667 349.4 377 337.9C382.5 339.5 384.2 340.467 386.2 341.3C385.105 359.597 384.04 370.01 382 388Z" fill="#FEAB00"/>
<path d="M293 317.5C285 312.7 276.5 309.5 271 309C263.4 321.4 184.5 326.5 146 327.5C143.5 334 136.5 337.167 132.5 337.5C141 337.667 170.4 338.9 220 342.5C269.6 346.1 289.333 327.333 293 317.5Z" fill="#FFB825"/>
<path d="M271 309C261.5 317.5 239.833 320 224.5 322C266.5 324 277.667 315.167 278 310.5C276.4 309.7 272.667 309.167 271 309Z" fill="#FEAB00"/>
<path d="M334.286 334.559C334.214 335.385 322.106 334.128 321.281 334.056C320.455 333.984 307.167 329.003 307.239 328.178C307.312 327.353 321.357 329.413 322.182 329.485C323.008 329.557 334.358 333.734 334.286 334.559Z" fill="#FAA900"/>
<path d="M148.686 354.558C148.686 355.386 138.408 353.273 137.58 353.273C136.751 353.273 121.186 351.387 121.186 350.558C121.186 349.73 135.358 350.558 136.186 350.558C137.015 350.558 148.686 353.73 148.686 354.558Z" fill="#FAA800"/>
<path d="M268.5 355.324C254.5 362 213.667 357.492 189 355.325C203.5 360.325 262 368.525 273.5 364.378C282.5 361.132 291.908 344.163 268.5 355.324Z" fill="#FAA900"/>
<path d="M107.876 201.104C112.876 198.604 117.576 187.504 118.376 163.104C109.876 171.104 104.876 196.604 107.876 201.104Z" fill="#021632"/>
<path d="M249.376 157.604C240.876 163.604 215.876 171.104 195.876 154.604C208.209 154.604 236.176 155.204 249.376 157.604Z" fill="#021632"/>
<path d="M270.679 298.102C268.685 300.893 269.848 306.575 270.679 309.067C256.972 322.31 200.972 326.31 145.58 327.508C173.989 301.093 161.529 207.394 158.04 198.921C155.249 192.143 148.571 192.774 145.58 193.937C113.683 206.297 78.1305 197.093 64.3414 190.946C61.0188 184.135 56.367 167.223 64.3414 154.065C74.3094 137.618 64.8398 134.627 64.3414 134.129C63.9427 133.73 64.1753 129.311 64.3414 127.151C64.4788 124.993 58.4723 120.81 55.3702 118.31C52.8886 116.31 54.3362 113.735 55.3702 112.698C58.3606 113.196 60.8526 110.206 64.3414 107.714C67.1325 105.72 72.4819 111.203 74.8078 114.193C79.7918 110.704 84.2774 113.695 87.7662 114.193C90.5572 114.592 91.255 122.998 91.255 127.151L89.9724 154.81C88.4724 157.31 85.5724 162.91 85.9724 165.31C86.4724 168.31 141.634 168.323 154.053 153.567C169.603 147.586 184.123 154.729 189.44 159.049C202.398 157.554 200.404 140.608 198.909 137.119C198.1 135.231 189.44 133.631 191.433 131.637C193.427 129.643 189.938 121.669 189.44 120.174C188.941 118.679 190.935 111.701 193.427 110.206C193.427 96.749 199.906 75.8162 226.82 78.3082C248.35 80.3018 251.407 100.404 250.244 110.206C247.852 111.801 251.241 118.512 253.235 121.669C251.64 124.061 249.58 131.969 248.749 135.624C245.161 138.415 243.931 143.765 243.765 146.091C240.575 150.875 246.755 159.049 250.244 162.538C254.896 164.199 264.499 168.219 265.695 171.011C266.891 173.802 271.842 177.157 274.167 178.486C284.135 184.866 290.615 201.413 292.608 208.889C294.602 216.152 291.778 225.87 290.116 229.822C284.634 251.253 273.171 294.613 270.679 298.102Z" fill="#F4A44E"/>
<path d="M270.555 297.928C268.561 300.72 269.724 306.401 270.555 308.893C256.848 322.136 200.848 326.136 145.457 327.334C173.865 300.919 161.405 207.22 157.917 198.747C155.126 191.969 148.447 192.6 145.457 193.763C138.678 198.829 116.912 203.215 107.876 201.104C115.476 197.117 117.709 174.554 118.376 163.104C139.576 164.704 151.912 154.405 153.929 153.393C169.479 147.412 183.999 154.556 189.316 158.875C191.376 158.104 192.876 158.875 195.876 154.604C203.327 158.617 212.396 162.926 221.376 163.104C235.896 163.393 249.376 157.604 249.376 157.604C249.376 161.104 249.876 162.283 250.12 162.364C253.876 163.604 264.375 168.046 265.571 170.837C266.767 173.628 271.718 176.984 274.044 178.313C284.011 184.692 290.491 201.239 292.484 208.715C294.478 215.978 291.654 225.696 289.992 229.648C284.51 251.079 273.047 294.44 270.555 297.928Z" fill="#0D0D0D"/>
<path d="M270.5 309.104C261.3 322.704 188 326.604 145.5 327.104C249.1 322.304 274.333 225.771 274 178.104C297 200.604 295 221.104 290 229.604C284.5 250.771 273 293.904 271 297.104C269 300.304 269.833 306.438 270.5 309.104Z" fill="#141414"/>
<path d="M171 219.604C171.4 230.404 166.667 242.938 163.5 248.104C163.5 244.104 161 211.104 159 203.104C157.339 196.462 153.333 193.604 151 193.104C151.333 192.771 153.2 192.204 158 192.604C164 193.104 170.5 206.104 171 219.604Z" fill="#141414"/>
<path d="M189.5 163.604C196.3 164.804 200 159.771 201 157.104L196 154.604C194 156.604 190.833 158.104 189 158.604C188.2 157.404 184.167 155.604 182 154.604C185.6 157.004 188.5 161.604 189.5 163.604Z" fill="#141414"/>
<path d="M155 153.105C155.167 157.105 149.8 164.705 127 163.105C145 161.105 153.5 152.604 155 153.105Z" fill="#141414"/>
<path d="M270.5 309.104C267.5 317.104 229.333 322.771 215 323.604C261 316.004 279 257.604 290 229.604L281 265.104L275 285.604L271 297.104C269.4 299.104 270 305.938 270.5 309.104Z" fill="#212121"/>
<path fill-rule="evenodd" clip-rule="evenodd" d="M175 210.425L179.561 202.525V206.08L176.539 211.314L175 210.425ZM182.569 200.87L179.561 206.08V214.662H182.569V203.222H182.569L182.569 203.222L189.229 214.756H192.702L186.043 203.222H189.223V203.222H192.687V203.222H189.223V199.758H192.687V199.523L194.693 201.673V214.662H197.701V204.899L200.933 208.366L202 207.371L197.701 202.76V193.105H194.693V199.535L192.687 197.384V196.568H192.687V193.105H192.687V196.568H191.926L189.971 194.471L189.223 195.169V193.105H187.053L189.487 188.889L187.947 188L185 193.105H182.569V196.568H183L182.569 197.315V193.105H179.561V202.525L182.569 197.315V199.758H182.569V200.87ZM182.569 200.87V199.758H183.211L182.569 200.87ZM185.053 196.568L183.211 199.758H189.223V196.568H189.932L192.687 199.523V197.384L191.926 196.568H189.932L189.223 195.808V195.169L188.904 195.466L189.223 195.808V196.568H185.053ZM185.053 196.568L187.053 193.105H185L183 196.568H185.053ZM182.569 200.87L182.569 200.87V203.222H182.569V200.87ZM194.693 199.535V201.673L197.701 204.899V202.76L194.693 199.535ZM186.043 203.222L185.174 201.718L182.569 203.222H186.043Z" fill="#FFC449"/>
<path d="M247 158.604C224.2 169.404 204.167 160.771 197 155.104C223.5 157.104 240.167 155.604 243 150.104C242.6 152.104 245.5 156.604 247 158.604Z" fill="#E78419"/>
<path d="M249 157.604C228.2 168.804 207.667 161.938 200 157.104L196.5 161.604C221.3 174.804 242.667 163.604 249 157.604Z" fill="#141414"/>
<path d="M109.5 200.104C116.3 195.304 118 175.438 118 166.104C115.6 183.704 108.333 196.104 105 200.104C105.8 200.504 108.333 200.271 109.5 200.104Z" fill="#DE811B"/>
<path d="M243 150.104C238.5 158.104 210.5 156.271 197 155.104C196.5 155.104 197.833 153.771 198 153.104C218.4 154.304 237.167 148.938 244 146.104C242.8 146.904 242.833 149.104 243 150.104Z" fill="#F09A3E"/>
<path d="M216.464 82.4122C195.519 84.9345 185.837 101.724 193.741 110C221.898 87.1415 236.388 97.3884 249.56 100.541C255.982 96.6001 251.536 90.5571 251.042 87.1415C234.741 81.624 242.644 79.2593 216.464 82.4122Z" fill="#673F2A"/>
<path d="M250 100.894C215.699 95.7957 197.876 105.751 193 110C207.628 94.5221 224.779 86.7832 250 99.0734V100.894Z" fill="#5D341F"/>
<path d="M242.5 106.604C242.5 109.09 226.985 109.604 224.5 109.604C217 109.604 201 119.09 201 116.604C202.5 109.604 222.015 103.104 224.5 103.104C226.985 103.104 242.5 104.119 242.5 106.604Z" fill="#F09A3E"/>
<path d="M86 165.604C85.5 163.604 88.0001 157.771 90.0001 155.104C80.8002 160.304 82.8335 166.938 85.0001 169.604C96.6001 174.804 101.833 169.771 103 166.604C100 167.104 92 166.604 86 165.604Z" fill="#E89A47"/>
<path d="M66 161.604C68 158.004 68.8333 147.104 69 142.104C68.8167 147.604 60.5 156.104 60 168.604C61.1667 167.771 64 165.204 66 161.604Z" fill="#E89A47"/>
<path d="M355.902 286.54C343.102 285.74 309.569 249.54 294.402 231.54L284.066 219.983L63.5657 125.983C63.5657 125.983 42.5685 116.04 35.9019 113.54C-15.0981 115.04 -54.0982 95.0401 -71.5982 83.0401C-85.5982 73.4401 -83.0982 60.0402 -80.0982 54.5402C-17.5982 11.0401 22.4018 89.0401 38.4018 102.54C48.4019 104.54 52.5657 110.983 55.5657 111.483L90.4018 126.54L153.402 153.04L292.402 208.54C308.902 210.04 313.566 213.983 313.566 213.983C382.566 247.983 371.902 287.54 355.902 286.54Z" fill="black"/>
<path d="M355.566 268.483C359.966 257.683 329.399 227.65 313.566 213.983C348.066 227.983 373.614 258.619 366.566 278.483C361.066 293.983 346.066 284.15 339.566 277.483C343.066 278.983 351.166 279.283 355.566 268.483Z" fill="#575757"/>
<path d="M354.566 286.563C359.232 284.563 366.566 276.804 366.566 263.483C370.066 271.483 367.366 290.163 354.566 286.563Z" fill="#777777"/>
<path d="M289.566 212.483C287.566 209.683 222.732 181.65 190.566 167.983L292.566 208.483C305.366 210.083 310.066 211.169 313.566 213.983C333.966 230.383 345.566 245.483 349.066 250.983C356.666 260.183 356.566 266.483 355.566 268.483C350.566 281.483 340.566 277.983 339.566 277.483C338.766 277.083 330.232 269.316 326.066 265.483C338.566 273.983 341.066 271.983 345.066 271.983C348.266 271.983 347.399 267.65 346.566 265.483C341.766 249.483 323.899 229.15 315.566 220.983C309.166 214.583 295.566 212.65 289.566 212.483Z" fill="#292929"/>
<path d="M-32.4344 58.9828C-47.2344 54.1828 -71.601 63.6494 -81.9344 68.9828C-84.3344 62.9826 -81.601 56.4828 -79.9344 53.9829C-19.4344 11.483 20.5656 85.4826 38.5656 102.483C37.3656 104.083 34.0656 102.15 32.5656 100.983C26.0656 93.4829 -13.9344 64.9828 -32.4344 58.9828Z" fill="#575757"/>
<path d="M42.0657 103.483C32.0657 113.985 -43.9343 45.4834 -69.9343 83.9816C-78.3343 79.5803 -81.4343 72.1489 -81.9343 68.9833C-73.9343 62.9832 -44.9343 52.983 -28.9343 59.9833C1.06567 74.4833 31.0657 98.483 32.5657 100.983C33.1654 101.983 37.7323 103.15 38.5657 102.483L42.0657 103.483Z" fill="#292929"/>
<path d="M215.101 290.113L213.845 291.364C213.529 291.144 213.204 290.997 212.869 290.924C212.535 290.851 212.201 290.839 211.869 290.886C211.537 290.934 211.216 291.039 210.908 291.202C210.603 291.362 210.318 291.573 210.055 291.835C209.58 292.308 209.274 292.851 209.136 293.464C209.001 294.075 209.055 294.719 209.297 295.397C209.542 296.073 209.996 296.743 210.659 297.409C211.328 298.079 211.999 298.539 212.674 298.786C213.351 299.031 213.995 299.085 214.606 298.947C215.217 298.809 215.757 298.506 216.227 298.038C216.487 297.778 216.699 297.498 216.863 297.195C217.027 296.888 217.135 296.569 217.186 296.24C217.238 295.91 217.229 295.58 217.16 295.247C217.091 294.91 216.951 294.584 216.74 294.27L218 293.023C218.336 293.495 218.578 293.998 218.724 294.531C218.871 295.059 218.916 295.596 218.862 296.142C218.807 296.683 218.655 297.212 218.405 297.729C218.155 298.245 217.803 298.729 217.349 299.181C216.636 299.892 215.831 300.357 214.936 300.575C214.039 300.79 213.113 300.741 212.16 300.429C211.21 300.113 210.298 299.517 209.424 298.64C208.547 297.759 207.955 296.844 207.649 295.892C207.34 294.938 207.296 294.014 207.518 293.12C207.736 292.223 208.201 291.42 208.912 290.712C209.35 290.276 209.82 289.933 210.324 289.682C210.828 289.426 211.352 289.267 211.896 289.207C212.437 289.144 212.98 289.186 213.523 289.334C214.064 289.48 214.59 289.74 215.101 290.113Z" fill="#FFC449"/>
<path d="M219.584 289.084L223.476 292.505L222.354 293.781L213.614 286.099L214.721 284.84L217.973 287.699L218.044 287.617C217.826 287.154 217.752 286.673 217.822 286.174C217.892 285.676 218.151 285.172 218.598 284.663C218.993 284.213 219.431 283.902 219.911 283.729C220.394 283.553 220.9 283.534 221.429 283.671C221.958 283.804 222.496 284.11 223.042 284.59L227.212 288.255L226.09 289.531L222.074 286.001C221.594 285.578 221.112 285.375 220.63 285.39C220.145 285.402 219.709 285.629 219.321 286.07C219.056 286.371 218.882 286.698 218.8 287.049C218.721 287.398 218.745 287.749 218.872 288.104C218.999 288.452 219.237 288.779 219.584 289.084Z" fill="#FFC449"/>
<path d="M230.736 284.243C230.393 284.676 230.003 285.005 229.565 285.229C229.124 285.45 228.668 285.541 228.197 285.502C227.728 285.459 227.27 285.261 226.821 284.906C226.435 284.6 226.176 284.275 226.044 283.929C225.912 283.583 225.873 283.226 225.927 282.858C225.981 282.491 226.094 282.122 226.267 281.751C226.439 281.38 226.634 281.018 226.852 280.663C227.128 280.216 227.353 279.852 227.525 279.573C227.695 279.292 227.79 279.065 227.81 278.893C227.83 278.721 227.76 278.571 227.6 278.444L227.569 278.42C227.18 278.112 226.791 277.983 226.403 278.034C226.018 278.082 225.655 278.321 225.314 278.752C224.959 279.2 224.779 279.632 224.774 280.048C224.768 280.459 224.846 280.808 225.009 281.097L223.734 282.123C223.435 281.646 223.271 281.163 223.241 280.676C223.211 280.184 223.285 279.704 223.466 279.238C223.643 278.77 223.895 278.329 224.221 277.916C224.438 277.643 224.699 277.379 225.007 277.125C225.314 276.865 225.657 276.669 226.038 276.535C226.421 276.399 226.839 276.369 227.29 276.446C227.738 276.52 228.212 276.755 228.711 277.15L233.256 280.745L232.227 282.046L231.291 281.306L231.249 281.36C231.353 281.582 231.42 281.845 231.45 282.149C231.48 282.453 231.443 282.784 231.34 283.141C231.236 283.498 231.034 283.865 230.736 284.243ZM229.896 283.107C230.187 282.739 230.363 282.366 230.425 281.99C230.488 281.61 230.457 281.259 230.33 280.937C230.203 280.609 230.004 280.339 229.734 280.125L228.851 279.427C228.861 279.512 228.833 279.639 228.766 279.809C228.699 279.973 228.612 280.153 228.506 280.349C228.396 280.542 228.289 280.73 228.183 280.912C228.075 281.092 227.985 281.243 227.912 281.365C227.741 281.649 227.609 281.929 227.517 282.204C227.427 282.476 227.405 282.733 227.449 282.976C227.493 283.214 227.634 283.426 227.872 283.614C228.201 283.875 228.547 283.951 228.909 283.841C229.268 283.729 229.597 283.484 229.896 283.107Z" fill="#FFC449"/>
<path d="M235.456 277.966L228.277 273.003L229.205 271.662L230.373 272.469L230.434 272.381C230.142 271.957 230.003 271.5 230.016 271.007C230.027 270.512 230.196 270.028 230.523 269.555C230.855 269.075 231.245 268.75 231.693 268.581C232.144 268.409 232.619 268.381 233.119 268.497L233.171 268.422C232.906 267.986 232.79 267.502 232.821 266.971C232.849 266.438 233.041 265.912 233.399 265.395C233.849 264.744 234.42 264.354 235.113 264.225C235.808 264.093 236.566 264.311 237.389 264.879L242.203 268.208L241.236 269.605L236.554 266.367C236.067 266.031 235.624 265.92 235.223 266.034C234.821 266.148 234.494 266.389 234.24 266.757C233.925 267.212 233.821 267.662 233.927 268.109C234.029 268.553 234.299 268.926 234.735 269.227L239.311 272.39L238.348 273.783L233.576 270.484C233.187 270.215 232.789 270.12 232.385 270.199C231.98 270.278 231.643 270.513 231.373 270.902C231.19 271.167 231.091 271.46 231.076 271.781C231.061 272.097 231.128 272.409 231.28 272.716C231.433 273.021 231.672 273.285 231.996 273.509L236.422 276.569L235.456 277.966Z" fill="#FFC449"/>
<path d="M246.763 267.084L236.455 260.94L237.304 259.515L238.52 260.239L238.592 260.117C238.487 259.94 238.379 259.71 238.269 259.429C238.159 259.147 238.112 258.819 238.128 258.445C238.14 258.069 238.285 257.648 238.563 257.183C238.923 256.577 239.398 256.128 239.987 255.836C240.576 255.543 241.239 255.433 241.976 255.506C242.715 255.576 243.489 255.853 244.299 256.336C245.11 256.819 245.724 257.368 246.142 257.983C246.557 258.596 246.78 259.232 246.811 259.89C246.839 260.546 246.673 261.177 246.312 261.782C246.04 262.237 245.742 262.564 245.416 262.763C245.093 262.958 244.78 263.076 244.478 263.116C244.176 263.157 243.919 263.173 243.707 263.166L243.655 263.254L247.633 265.625L246.763 267.084ZM241.056 261.744C241.583 262.059 242.09 262.258 242.578 262.341C243.067 262.425 243.509 262.389 243.906 262.233C244.3 262.076 244.622 261.787 244.872 261.367C245.132 260.931 245.234 260.498 245.177 260.067C245.118 259.635 244.932 259.224 244.621 258.836C244.312 258.445 243.907 258.1 243.406 257.801C242.912 257.506 242.423 257.316 241.94 257.231C241.459 257.143 241.016 257.179 240.612 257.339C240.21 257.496 239.878 257.795 239.616 258.234C239.364 258.657 239.26 259.08 239.303 259.503C239.348 259.922 239.522 260.323 239.823 260.705C240.124 261.088 240.535 261.434 241.056 261.744Z" fill="#FFC449"/>
<path d="M249.22 256.343L241.542 252.195L242.349 250.7L250.028 254.849L249.22 256.343ZM240.765 250.8C240.625 251.06 240.417 251.236 240.143 251.329C239.867 251.417 239.608 251.395 239.365 251.264C239.118 251.131 238.958 250.926 238.883 250.649C238.808 250.367 238.84 250.096 238.98 249.836C239.121 249.576 239.329 249.402 239.605 249.314C239.879 249.221 240.139 249.241 240.386 249.374C240.629 249.506 240.788 249.713 240.864 249.995C240.939 250.272 240.905 250.54 240.765 250.8Z" fill="#FFC449"/>
<path d="M252.961 249.488C252.604 250.224 252.124 250.784 251.521 251.17C250.917 251.555 250.238 251.752 249.485 251.761C248.731 251.77 247.948 251.578 247.137 251.185C246.323 250.79 245.684 250.293 245.221 249.694C244.758 249.095 244.491 248.439 244.419 247.727C244.348 247.014 244.491 246.29 244.848 245.554C245.204 244.817 245.685 244.257 246.288 243.872C246.892 243.486 247.572 243.29 248.329 243.283C249.086 243.275 249.872 243.469 250.687 243.864C251.498 244.257 252.133 244.752 252.593 245.35C253.053 245.947 253.318 246.602 253.39 247.315C253.461 248.027 253.318 248.751 252.961 249.488ZM251.68 248.86C251.912 248.383 251.977 247.927 251.877 247.491C251.777 247.055 251.554 246.66 251.207 246.307C250.862 245.95 250.438 245.65 249.933 245.405C249.432 245.162 248.935 245.016 248.441 244.966C247.946 244.911 247.494 244.978 247.087 245.168C246.679 245.358 246.36 245.691 246.128 246.168C245.895 246.649 245.83 247.11 245.932 247.551C246.035 247.988 246.261 248.386 246.609 248.744C246.956 249.097 247.38 249.396 247.881 249.638C248.385 249.883 248.883 250.032 249.375 250.085C249.869 250.135 250.318 250.064 250.722 249.873C251.128 249.678 251.447 249.341 251.68 248.86Z" fill="#FFC449"/>
<path d="M251.4 240.029L256.207 241.963L255.573 243.539L247.476 240.281L248.085 238.769L249.403 239.299L249.443 239.199C249.089 238.84 248.862 238.41 248.762 237.908C248.663 237.403 248.736 236.846 248.981 236.238C249.203 235.687 249.513 235.25 249.912 234.929C250.307 234.606 250.777 234.422 251.323 234.376C251.868 234.33 252.474 234.441 253.142 234.709L258.292 236.782L257.658 238.358L252.697 236.362C252.111 236.126 251.591 236.094 251.137 236.267C250.68 236.438 250.344 236.791 250.13 237.325C249.982 237.691 249.931 238.048 249.974 238.396C250.019 238.741 250.162 239.057 250.401 239.345C250.638 239.628 250.971 239.856 251.4 240.029Z" fill="#FFC449"/>
<path fill-rule="evenodd" clip-rule="evenodd" d="M224.013 55C224.013 63.4177 224.013 71.8354 224.013 80.2532C223.852 80.2532 223.772 80.3333 223.772 80.4937C221.875 80.9956 221.314 82.1981 222.089 84.1013C222.617 84.4856 223.178 84.8062 223.772 85.0633C223.981 85.5965 224.061 86.1576 224.013 86.7468C223.933 86.7468 223.852 86.7468 223.772 86.7468C214.072 86.7468 204.371 86.7468 194.671 86.7468C192.867 76.9645 191.143 67.1838 189.5 57.4051C193.625 60.6699 197.794 63.8768 202.006 67.0253C202.382 71.8104 204.948 74.456 209.703 74.962C214.772 74.7028 217.417 72.0572 217.639 67.0253C216.637 66.0231 215.635 65.0212 214.633 64.019C217.66 60.871 220.787 57.8647 224.013 55Z" fill="#F0CF03"/>
<path fill-rule="evenodd" clip-rule="evenodd" d="M224.013 55C227.091 57.9577 230.137 60.9641 233.152 64.019C232.15 65.0212 231.148 66.0231 230.146 67.0253C230.212 71.0425 232.177 73.6481 236.038 74.8418C241.793 75.3524 245.04 72.7467 245.778 67.0253C249.886 63.8696 254.014 60.7431 258.165 57.6456C258.245 57.7658 258.325 57.8861 258.405 58.0063C256.622 67.5833 254.858 77.1634 253.114 86.7468C243.414 86.7468 233.713 86.7468 224.013 86.7468C224.061 86.1576 223.981 85.5965 223.772 85.0633C223.852 85.0633 223.933 85.0633 224.013 85.0633C225.756 84.4926 226.357 83.29 225.816 81.4557C225.22 81.0194 224.619 80.6185 224.013 80.2532C224.013 71.8354 224.013 63.4177 224.013 55Z" fill="#D2AC12"/>
<path fill-rule="evenodd" clip-rule="evenodd" d="M224.013 80.2534C224.619 80.6187 225.22 81.0197 225.816 81.4559C226.357 83.2903 225.756 84.4928 224.013 85.0635C224.049 83.5318 223.969 82.0084 223.772 80.4939C223.772 80.3335 223.852 80.2534 224.013 80.2534Z" fill="#5D7671"/>
<path fill-rule="evenodd" clip-rule="evenodd" d="M223.772 80.4937C223.969 82.0081 224.049 83.5315 224.013 85.0633C223.933 85.0633 223.852 85.0633 223.772 85.0633C223.178 84.8062 222.617 84.4856 222.089 84.1012C221.314 82.1981 221.875 80.9956 223.772 80.4937Z" fill="#67868D"/>
<path fill-rule="evenodd" clip-rule="evenodd" d="M194.671 86.7466C204.371 86.7466 214.072 86.7466 223.772 86.7466C223.772 87.1475 223.772 87.5482 223.772 87.9491C214.072 87.9491 204.371 87.9491 194.671 87.9491C194.03 87.5482 194.03 87.1475 194.671 86.7466Z" fill="#E4B000"/>
<path fill-rule="evenodd" clip-rule="evenodd" d="M223.772 86.7466C223.852 86.7466 223.933 86.7466 224.013 86.7466C233.713 86.7466 243.414 86.7466 253.114 86.7466C253.755 87.1475 253.755 87.5482 253.114 87.9491C243.414 87.9491 233.713 87.9491 224.013 87.9491C223.933 87.9491 223.852 87.9491 223.772 87.9491C223.772 87.5482 223.772 87.1475 223.772 86.7466Z" fill="#C9930F"/>
<path fill-rule="evenodd" clip-rule="evenodd" d="M194.671 87.9497C204.371 87.9497 214.072 87.9497 223.772 87.9497C223.852 87.9497 223.933 87.9497 224.013 87.9497C224.013 88.5911 224.013 89.2323 224.013 89.8738C223.933 89.8738 223.852 89.8738 223.772 89.8738C214.072 89.8738 204.371 89.8738 194.671 89.8738C194.671 89.2323 194.671 88.5911 194.671 87.9497Z" fill="#F0CE01"/>
<path fill-rule="evenodd" clip-rule="evenodd" d="M224.013 87.9497C233.713 87.9497 243.414 87.9497 253.114 87.9497C253.114 88.5911 253.114 89.2323 253.114 89.8738C243.414 89.8738 233.713 89.8738 224.013 89.8738C224.013 89.2323 224.013 88.5911 224.013 87.9497Z" fill="#D2AB12"/>
<path fill-rule="evenodd" clip-rule="evenodd" d="M194.671 89.8735C204.371 89.8735 214.072 89.8735 223.772 89.8735C223.772 90.3545 223.772 90.8356 223.772 91.3166C214.152 91.3166 204.532 91.3166 194.911 91.3166C194.831 91.3166 194.751 91.3166 194.671 91.3166C194.03 90.8356 194.03 90.3545 194.671 89.8735Z" fill="#E5B201"/>
<path fill-rule="evenodd" clip-rule="evenodd" d="M223.772 89.8735C223.852 89.8735 223.933 89.8735 224.013 89.8735C233.713 89.8735 243.414 89.8735 253.114 89.8735C253.755 90.3545 253.755 90.8356 253.114 91.3166C253.034 91.3166 252.954 91.3166 252.873 91.3166C243.253 91.3166 233.633 91.3166 224.013 91.3166C223.933 91.3166 223.852 91.3166 223.772 91.3166C223.772 90.8356 223.772 90.3545 223.772 89.8735Z" fill="#CA9410"/>
<path fill-rule="evenodd" clip-rule="evenodd" d="M194.911 91.3164C204.532 91.3164 214.152 91.3164 223.772 91.3164C223.852 91.3164 223.933 91.3164 224.013 91.3164C224.013 91.7974 224.013 92.2784 224.013 92.7594C223.933 92.7594 223.852 92.7594 223.772 92.7594C214.152 92.7594 204.532 92.7594 194.911 92.7594C194.911 92.2784 194.911 91.7974 194.911 91.3164Z" fill="#F0CF00"/>
<path fill-rule="evenodd" clip-rule="evenodd" d="M224.013 91.3164C233.633 91.3164 243.253 91.3164 252.873 91.3164C252.873 91.7974 252.873 92.2784 252.873 92.7594C243.253 92.7594 233.633 92.7594 224.013 92.7594C224.013 92.2784 224.013 91.7974 224.013 91.3164Z" fill="#D2AC10"/>
<path fill-rule="evenodd" clip-rule="evenodd" d="M194.671 91.3164C194.751 91.3164 194.831 91.3164 194.911 91.3164C194.911 91.7974 194.911 92.2784 194.911 92.7594C204.532 92.7594 214.152 92.7594 223.772 92.7594C223.772 92.8395 223.772 92.9199 223.772 93C214.072 93 204.371 93 194.671 93C194.671 92.4388 194.671 91.8775 194.671 91.3164Z" fill="#F3DA3D"/>
<path fill-rule="evenodd" clip-rule="evenodd" d="M252.873 91.3164C252.954 91.3164 253.034 91.3164 253.114 91.3164C253.114 91.8775 253.114 92.4388 253.114 93C243.333 93 233.553 93 223.772 93C223.772 92.9199 223.772 92.8395 223.772 92.7594C223.852 92.7594 223.933 92.7594 224.013 92.7594C233.633 92.7594 243.253 92.7594 252.873 92.7594C252.873 92.2784 252.873 91.7974 252.873 91.3164Z" fill="#DDC04A"/>
</g>
<defs>
<clipPath id="clip0_743_9">
<rect width="430" height="430" fill="white"/>
</clipPath>
</defs>
</svg>
