<svg width="207" height="205" viewBox="0 0 207 205" fill="none" xmlns="http://www.w3.org/2000/svg">
<mask id="mask0_678_148" style="mask-type:alpha" maskUnits="userSpaceOnUse" x="0" y="0" width="207" height="205">
<rect width="207" height="204.332" rx="15" fill="#272727"/>
</mask>
<g mask="url(#mask0_678_148)">
<path d="M187.794 188.861C162.693 190.988 73.3098 171.944 30.9433 168.222C49.2371 163.755 53.8106 163.466 54.6083 161.871C59.5008 161.658 61.433 158.237 61.7876 156.553C82.4706 156.075 124.775 153.439 128.528 146.714C132.995 147.353 138.189 149.994 140.228 151.235C170.095 156.553 187.999 163.081 190.038 163.967L187.794 188.861Z" fill="#CCC5E5"/>
<path d="M187.794 188.861C174.349 190.568 138.8 184.949 122.706 181.926C166.88 184.486 175.612 167.699 174.456 158.985C182.565 161.119 188.256 163.146 190.034 163.946C189.181 176.537 188.149 185.838 187.794 188.861Z" fill="#B0AAC5"/>
<path d="M187.794 188.861C184.166 190.569 162.808 188.15 152.582 186.727C165.387 188.061 179.258 183.793 181.125 182.193C182.619 180.912 184.415 168.268 185.126 162.133C188.061 162.986 188.968 163.502 190.035 163.947C189.45 173.708 188.882 179.264 187.794 188.861Z" fill="#A29DB7"/>
<path d="M140.312 151.249C136.044 148.688 131.509 146.981 128.575 146.714C124.52 153.33 82.4265 156.051 61.8866 156.584C60.5528 160.052 56.8183 161.741 54.6843 161.919C59.2191 162.008 74.9041 162.666 101.366 164.587C127.828 166.507 138.356 156.495 140.312 151.249Z" fill="#A29DB7"/>
<path d="M128.575 146.714C123.506 151.249 111.947 152.583 103.767 153.65C126.174 154.717 132.131 150.004 132.309 147.515C131.456 147.088 129.464 146.803 128.575 146.714Z" fill="#858098"/>
<path d="M162.338 160.35C162.3 160.791 155.84 160.12 155.4 160.082C154.959 160.043 147.87 157.386 147.909 156.946C147.947 156.506 155.44 157.605 155.881 157.643C156.321 157.682 162.377 159.91 162.338 160.35Z" fill="#B0AAC5"/>
<path d="M63.3197 171.02C63.3197 171.462 57.8364 170.334 57.3944 170.334C56.9524 170.334 48.6483 169.328 48.6483 168.886C48.6483 168.444 56.2089 168.886 56.6509 168.886C57.0929 168.886 63.3197 170.578 63.3197 171.02Z" fill="#B0AAC5"/>
<path d="M127.241 171.429C119.772 174.99 97.9871 172.585 84.8273 171.429C92.5631 174.096 123.773 178.471 129.908 176.259C134.71 174.527 139.729 165.474 127.241 171.429Z" fill="#B0AAC5"/>
<path d="M41.5473 89.1519C44.2149 87.8181 46.7223 81.8962 47.1491 68.8787C42.6143 73.1467 39.9467 86.7511 41.5473 89.1519Z" fill="#021632"/>
<path d="M117.038 65.9443C112.503 69.1453 99.1658 73.1466 88.4957 64.3438C95.0756 64.3438 109.996 64.6639 117.038 65.9443Z" fill="#021632"/>
<path d="M128.403 140.9C127.34 142.39 127.96 145.421 128.403 146.75C121.091 153.815 91.2147 155.949 61.6628 156.588C76.819 142.496 70.1716 92.5069 68.3103 87.9866C66.8213 84.3704 63.2582 84.7072 61.6628 85.3277C44.6453 91.9219 25.6779 87.0117 18.3214 83.7323C16.5487 80.0983 14.067 71.0755 18.3214 64.0558C23.6393 55.2811 18.5873 53.6857 18.3214 53.4198C18.1086 53.2071 18.2327 50.8495 18.3214 49.6973C18.3946 48.5456 15.1902 46.3142 13.5352 44.9804C12.2112 43.9134 12.9835 42.5397 13.5352 41.9862C15.1306 42.2521 16.4601 40.6567 18.3214 39.3273C19.8104 38.2637 22.6644 41.1885 23.9052 42.7839C26.5642 40.9226 28.9573 42.518 30.8186 42.7839C32.3076 42.9967 32.6799 47.4815 32.6799 49.6973L31.9956 64.4533C31.1954 65.7871 29.6482 68.7747 29.8616 70.0551C30.1284 71.6557 59.5574 71.6626 66.1831 63.7899C74.4791 60.5991 82.2256 64.4104 85.0619 66.7148C91.9753 65.9171 90.9117 56.8766 90.114 55.0153C89.6821 54.0076 85.0619 53.154 86.1255 52.0904C87.1891 51.0268 85.3278 46.7724 85.0619 45.9747C84.796 45.177 85.8596 41.4544 87.1891 40.6567C87.1891 33.4775 90.6458 22.3097 105.004 23.6392C116.491 24.7028 118.122 35.4274 117.502 40.6567C116.225 41.5076 118.033 45.0884 119.097 46.7724C118.246 48.0487 117.147 52.2676 116.704 54.2176C114.789 55.7066 114.133 58.5606 114.045 59.8014C112.343 62.3541 115.64 66.7148 117.502 68.5761C119.983 69.4624 125.106 71.6073 125.744 73.0964C126.383 74.5854 129.024 76.3758 130.265 77.0848C135.583 80.4883 139.039 89.3162 140.103 93.3046C141.166 97.1795 139.66 102.364 138.773 104.472C135.849 115.906 129.733 139.039 128.403 140.9Z" fill="#F4A44E"/>
<path d="M128.337 140.808C127.274 142.297 127.894 145.328 128.337 146.657C121.025 153.723 91.1486 155.857 61.5967 156.496C76.7529 142.403 70.1054 92.4141 68.2442 87.8939C66.7551 84.2776 63.1921 84.6144 61.5967 85.2349C57.9805 87.9376 46.368 90.2777 41.5473 89.1516C45.6019 87.0244 46.7934 74.9867 47.1491 68.8784C58.4594 69.732 65.0405 64.2374 66.117 63.6971C74.413 60.5064 82.1595 64.3176 84.9958 66.622C86.0949 66.2109 86.8952 66.622 88.4957 64.3436C92.4711 66.4842 97.3093 68.7832 102.1 68.8784C109.847 69.0323 117.038 65.9441 117.038 65.9441C117.038 67.8114 117.305 68.4402 117.435 68.4833C119.439 69.1451 125.04 71.5145 125.678 73.0036C126.316 74.4926 128.958 76.283 130.198 76.992C135.516 80.3955 138.973 89.2234 140.037 93.2118C141.1 97.0867 139.594 102.272 138.707 104.38C135.782 115.813 129.667 138.946 128.337 140.808Z" fill="#072146"/>
<path d="M128.308 146.77C123.4 154.026 84.2939 156.106 61.6199 156.373C116.891 153.812 130.353 102.311 130.175 76.8809C142.446 88.8847 141.379 99.8216 138.711 104.356C135.777 115.649 129.642 138.661 128.575 140.368C127.508 142.075 127.952 145.347 128.308 146.77Z" fill="#061D3D"/>
<path d="M75.2243 99.0216C75.4377 104.783 72.9124 111.47 71.223 114.226C71.223 112.092 69.8892 94.4868 68.8222 90.2187C67.9363 86.6749 65.799 85.1504 64.5542 84.8836C64.732 84.7058 65.7279 84.4035 68.2887 84.6169C71.4897 84.8836 74.9575 91.8192 75.2243 99.0216Z" fill="#061D3D"/>
<path d="M85.094 69.1453C88.7219 69.7855 90.6959 67.1002 91.2294 65.6775L88.5618 64.3438C87.4948 65.4108 85.8054 66.211 84.8273 66.4778C84.4005 65.8376 82.2487 64.8773 81.0928 64.3438C83.0134 65.6242 84.5605 68.0783 85.094 69.1453Z" fill="#061D3D"/>
<path d="M66.6882 63.5438C66.7771 65.6778 63.9139 69.7324 51.75 68.8788C61.3531 67.8118 65.8879 63.2769 66.6882 63.5438Z" fill="#061D3D"/>
<path d="M128.308 146.77C126.708 151.038 106.345 154.062 98.6985 154.506C123.24 150.452 132.843 119.295 138.711 104.357L133.91 123.296L130.709 134.233L128.575 140.368C127.721 141.435 128.041 145.081 128.308 146.77Z" fill="#021632"/>
<path fill-rule="evenodd" clip-rule="evenodd" d="M77.3583 94.1245L79.7918 89.9095V91.806L78.1795 94.5986L77.3583 94.1245ZM81.3965 89.0267L79.7918 91.806V96.3847H81.3966V90.2815L84.9493 96.435H86.8024L83.2496 90.2814H84.9465V90.2817H86.7944V90.2814H84.9465V88.4335H86.7944V88.3075L87.8644 89.4549V96.3847H89.4692V91.1759L91.194 93.0255L91.763 92.4948L89.4692 90.035V84.8837H87.8644V88.3141L86.7944 87.1667V86.7317H86.7945V84.8837H86.7944V86.7317H86.3888L85.3455 85.6128L84.9465 85.9849V84.8837H83.7884L85.087 82.6345L84.2657 82.1604L82.6934 84.8837H81.3966V84.8837H79.7918V89.9095L81.3966 87.1299V88.4335H81.3965V89.0267ZM81.3966 89.0265V88.4335H81.7389L81.3966 89.0265ZM81.3966 90.2814H81.3965V89.0267L81.3966 89.0265V90.2814ZM81.3967 90.2814H81.3966V90.2815L81.3966 90.2815L81.3966 90.2815V90.2815L81.3967 90.2814ZM81.3967 90.2814H83.2496L82.7864 89.4791L81.3967 90.2814ZM82.7215 86.7317L81.7389 88.4335H84.9465V86.7317H85.3249L86.7944 88.3075V87.1667L86.3888 86.7317H85.3249L84.9465 86.3259V85.9849L84.7764 86.1435L84.9465 86.3259V86.7317H82.7215ZM81.6265 86.7317L82.6934 84.8837H83.7884L82.7215 86.7317H81.6265ZM81.3966 86.7317V84.8837H81.3966V86.7317H81.3966ZM81.3966 86.7317H81.6265L81.3966 87.1299V86.7317ZM87.8644 88.3141V89.4549L89.4692 91.1759V90.035L87.8644 88.3141Z" fill="#021632"/>
<path d="M115.771 66.4777C103.607 72.2395 92.9188 67.6336 89.0954 64.6104C103.233 65.6774 112.125 64.8771 113.637 61.9429C113.423 63.0099 114.97 65.4107 115.771 66.4777Z" fill="#E78419"/>
<path d="M116.838 65.9442C105.741 71.9195 94.7861 68.2561 90.6959 65.6775L88.8286 68.0783C102.06 75.1205 113.459 69.1453 116.838 65.9442Z" fill="#061D3D"/>
<g style="mix-blend-mode:color-dodge">
<mask id="mask1_678_148" style="mask-type:alpha" maskUnits="userSpaceOnUse" x="40" y="60" width="101" height="101">
<path fill-rule="evenodd" clip-rule="evenodd" d="M140.312 60.2866H40.0129V160.586L40.0129 155.124C40.0129 149.852 40.0289 149.58 40.3974 148.122C41.1184 145.302 41.6312 142.466 42.3361 137.627C43.1533 132.068 43.3616 130.946 44.0345 128.943C44.5152 127.501 45.156 126.139 46.9505 122.807C48.745 119.458 48.7931 117.391 47.1748 114.155C46.1174 112.024 44.1466 110.213 42.7848 110.133C41.3748 110.021 41.1345 110.662 41.1345 114.459C41.1345 117.504 40.9422 118.657 40.3173 119.218C40.0129 119.49 40.0129 119.122 40.0129 105.615V91.7398L40.9102 88.4072C42.945 80.7966 44.1627 77.9126 45.5406 77.464C46.6301 77.0955 47.6715 77.7684 48.3765 79.3066C48.6969 80.0116 48.745 80.364 48.745 82.3508C48.745 83.5845 48.6329 86.0359 48.5047 87.7983C48.1682 92.605 48.2163 96.931 48.6489 99.4465C49.0494 101.786 49.5141 103.276 50.3472 104.814C51.3246 106.672 52.0776 107.313 52.7345 106.881C53.2953 106.528 53.3594 105.647 52.9909 103.548C51.2445 93.6304 51.1644 90.442 52.5102 81.9502C52.9909 78.922 53.055 77.432 52.7666 75.8939C52.334 73.4585 51.1323 71.5518 49.5141 70.7347C48.9052 70.4143 48.5047 70.3341 47.6074 70.3341C46.598 70.3341 46.3257 70.4143 45.108 71.0231C44.0185 71.5518 43.5058 71.9364 42.6886 72.8176C41.5991 73.9872 41.0063 75.0447 40.3974 76.9033L40.0289 78.0248L40.0129 69.1645V60.3203H47.6074H55.202L55.266 63.1562C55.3141 65.6717 55.3462 66.0883 55.6506 66.649C56.0832 67.4982 56.676 67.7065 57.2848 67.2739C58.2622 66.5529 58.9191 64.5822 59.1594 61.6341L59.2716 60.3203H65.1197H70.9678L70.8877 62.7556C70.8076 65.4634 70.4871 66.9054 69.638 68.4916C68.8849 69.8855 68.0037 70.7988 65.6324 72.5933C61.4666 75.7336 59.6722 77.5602 58.5346 79.8513C57.6534 81.5978 57.413 82.8315 57.413 85.4751C57.413 89 58.1661 93.1978 60.3771 102.058C62.2517 109.54 63.3092 112.489 65.4722 116.222C67.2186 119.234 68.1319 121.477 69.7982 127.005C71.9452 134.038 72.1214 134.487 75.5341 141.312C78.7706 147.769 79.8601 150.541 80.9336 155.172C81.2701 156.63 81.8309 159.898 81.8309 160.443C81.8309 160.512 81.56 160.558 80.9653 160.586H87.1254L86.974 160.01C86.8779 159.69 86.6215 158.584 86.3972 157.575C84.4906 149.147 83.4651 146.215 79.3635 137.339C76.2391 130.578 75.406 128.318 73.8999 122.406C72.6662 117.568 71.5126 114.732 69.3816 111.303C69.0494 110.758 68.6535 110.118 68.31 109.563L68.3096 109.562L68.309 109.561C68.0565 109.153 67.8326 108.791 67.6833 108.547C66.1131 106.016 64.9435 102.939 63.4694 97.4917C62.3319 93.326 61.5468 89.5608 61.3064 87.2055C60.8098 82.3508 62.396 79.1944 66.738 76.3905C67.1923 76.1066 67.8087 75.7052 68.3924 75.3252L68.3926 75.3251L68.3927 75.325C68.797 75.0618 69.1856 74.8087 69.4938 74.612C71.4165 73.3623 73.4032 71.2955 74.2524 69.6932C75.39 67.4982 75.6463 66.2965 75.6623 63.0761V60.3202H78.7386H81.8149L81.927 61.0733C82.1033 62.2269 81.8789 70.0778 81.6066 72.7374C80.485 83.3441 81.0458 85.5712 87.6469 96.6105C93.0624 105.679 95.61 111.351 95.61 114.379C95.61 116.815 94.6166 119.426 91.9409 124.008C90.6591 126.22 89.3132 128.975 88.8806 130.337C88.448 131.651 88.2718 134.343 88.5442 135.56C88.9447 137.323 89.6818 138.781 92.005 142.354C94.4564 146.135 95.2415 148.33 95.0812 151.006C95.0332 151.839 94.7608 153.682 94.4884 155.092C94.216 156.502 93.9437 158.328 93.8956 159.145L93.8017 160.586H97.6669L97.7569 160.09C98.1574 158.168 98.526 155.604 98.6862 153.618C99.0066 149.564 98.558 147 96.6514 142.033C95.3856 138.717 95.2574 138.188 95.2574 136.265C95.2574 133.686 95.8022 131.683 98.2215 125.45C101.025 118.176 101.49 115.885 100.753 112.985C100.24 110.982 98.542 107.73 93.0944 98.2929C91.9569 96.3061 90.4508 93.7105 89.7618 92.5249C89.0729 91.3392 87.9193 89.3845 87.1822 88.1668C84.5706 83.9049 84.138 82.5911 84.2822 79.1624C84.3784 76.727 84.7629 75.2209 85.532 74.3397C85.9806 73.827 86.1088 73.7789 86.8618 73.7789C88.3358 73.7789 89.4414 74.7562 91.4121 77.7844C92.5497 79.5309 94.2 82.8314 97.9331 90.8425C104.102 104.045 105.784 108.211 106.585 112.232C106.809 113.29 106.841 114.091 106.777 115.837C106.681 118.257 106.393 119.811 104.678 127.149C103.253 133.221 102.932 135.416 103.028 138.108C103.092 139.71 103.236 140.848 103.541 142.114C104.262 145.174 104.406 145.991 104.614 147.882C104.919 150.878 104.47 154.819 103.349 159.049L102.941 160.586H108.379C107.254 160.55 107.165 160.478 107.226 160.331C107.787 158.937 108.524 156.181 108.892 154.114C109.597 150.189 109.661 146.135 109.133 139.31C108.684 133.333 108.844 130.706 110.11 124.249C112.145 113.931 112.033 112.569 108.54 103.1C105.464 94.752 103.653 91.0508 100.128 85.7635C97.5165 81.8701 97.0038 80.9889 94.3281 76.1021C92.9822 73.6347 91.4761 70.8949 90.9795 70.0137C89.2651 66.9855 88.4479 64.9507 87.1822 60.5926C87.1021 60.3363 87.3264 60.3202 90.4667 60.3202C93.7673 60.3202 93.8474 60.3202 93.8474 60.6567C93.8474 61.8904 94.7286 63.3645 95.4496 63.3645C95.9784 63.3645 96.8115 62.4031 97.2441 61.2816L97.6126 60.3202H100.272H102.932L102.467 62.275C101.698 65.5114 101.49 67.3219 101.586 69.8535C101.634 71.0872 101.794 72.6413 101.939 73.2982C102.387 75.317 103.445 78.217 104.694 80.9088C107.386 86.6447 110.126 93.7906 112.898 102.218C115.958 111.511 117.08 114.796 118.041 117.199C119.9 121.894 120.973 127.101 121.566 134.423C121.662 135.657 121.806 137.419 121.886 138.332C121.982 139.262 122.047 140.784 122.047 141.745C122.047 144.629 121.582 145.59 118.442 149.163C114.853 153.249 113.939 154.963 114.612 156.373C115.141 157.511 116.311 157.623 117.977 156.694C120.685 155.172 123.761 151.278 124.77 148.042C125.315 146.327 125.379 142.77 124.947 137.067C123.889 122.887 123.841 122.599 121.582 116.927C120.22 113.482 118.554 108.659 116.359 101.738C112.065 88.263 110.975 85.2668 108.476 80.0275C105.736 74.2916 105.496 73.4424 105.48 69.533C105.464 66.3766 105.688 64.9186 106.681 61.7943L107.162 60.3202H114.003C120.685 60.3202 120.829 60.3202 120.524 60.6247C120.348 60.7849 119.307 61.6501 118.201 62.5634C113.827 66.1363 112.497 67.7385 111.953 70.0938C111.68 71.2634 111.696 73.4104 112.017 74.8684C112.481 77.1115 113.827 79.643 114.885 80.2679C115.429 80.5883 115.686 80.5082 116.07 79.9154C116.327 79.5309 116.375 78.9861 116.439 75.4612L116.519 71.4557L117.032 70.4142C117.608 69.2286 118.874 67.6744 121.47 64.9667C122.447 63.9413 123.793 62.4832 124.45 61.7142L125.651 60.3202H128.343H131.035L130.682 60.833C130.058 61.7302 127.943 64.3418 126.773 65.6717C123.264 69.6452 122.463 70.6706 121.726 72.1446C120.957 73.6988 120.701 75.0126 120.717 77.3839C120.717 79.5148 120.813 80.1557 121.79 85.395C122.095 87.0613 122.575 90.2337 122.848 92.4448C123.633 98.8376 124.386 102.427 125.78 106.544C127.27 110.886 128.327 113.065 131.676 118.641C134.784 123.832 135.874 126.716 136.867 132.42C137.748 137.419 137.764 142.626 136.947 146.92C136.21 150.75 134.095 155.957 131.9 159.369L131.11 160.586H136.488C136.085 160.564 135.842 160.531 135.858 160.491C135.89 160.427 136.258 159.69 136.691 158.857C137.828 156.63 138.902 154.082 139.607 151.839C139.943 150.766 140.248 149.884 140.264 149.884C140.295 149.884 140.311 152.199 140.312 155.06V119.715L139.911 119.891C139.367 120.147 138.822 120.131 138.181 119.859C136.659 119.218 132.333 113.386 130.138 109.028C127.19 103.148 125.828 95.0243 125.828 83.232C125.828 78.5215 125.94 77.0634 126.469 74.9004C126.821 73.4584 127.815 71.5037 128.856 70.1739C132.413 65.6236 134.111 63.2363 135.297 61.1053L135.746 60.3202H138.037H140.312L140.312 60.2866ZM140.168 78.7778C140.246 78.573 140.31 74.4798 140.312 69.6058V119.668L140.296 105.839L140.28 91.9641L139.895 93.4862C137.188 103.997 136.435 105.391 134.464 103.564C133.599 102.763 132.349 100.312 131.74 98.2127C131.083 95.9536 130.811 92.9575 130.907 89.4806C131.035 85.2828 131.564 82.3668 133.022 78.0248C134.56 73.4104 136.403 70.1579 138.165 68.9242C138.726 68.5396 138.886 68.4916 139.174 68.6358C139.447 68.78 139.511 68.9722 139.511 69.5811C139.511 70.4943 139.27 71.3115 137.684 75.9259C135.906 81.1171 134.88 85.6513 134.544 89.769C134.207 93.9508 134.944 96.3221 136.242 95.2006C136.851 94.6558 137.332 92.9414 138.069 88.6635C138.678 85.0585 139.831 79.6751 140.168 78.7778ZM126.693 159.337C130.154 154.995 132.173 150.573 132.878 145.863C133.214 143.524 133.134 135.384 132.749 134.102C132.381 132.869 131.74 131.715 131.099 131.17C130.426 130.562 130.138 130.53 129.833 131.01C129.449 131.651 129.417 133.045 129.657 138.637C129.833 142.642 129.865 144.581 129.737 145.927C129.337 150.493 127.51 154.002 123.264 158.344L121.054 160.586H126.201C125.786 160.55 125.795 160.478 125.908 160.331C125.943 160.285 126.004 160.209 126.081 160.114L126.081 160.114C126.247 159.908 126.485 159.611 126.693 159.337ZM76.1018 160.586C75.574 160.545 75.5533 160.453 75.5181 160.251C75.47 160.058 75.2778 159.065 75.0855 158.056C74.1562 153.137 71.849 147.449 69.9103 145.286C68.933 144.196 68.1479 143.7 66.9943 143.395C65.7285 143.075 65.0075 143.235 63.0368 144.213C60.986 145.238 59.9445 145.959 58.823 147.097C56.7241 149.243 55.6986 152.416 55.4743 157.431C55.4263 158.616 55.3462 159.818 55.2981 160.091L55.2231 160.586H59.1934L59.3036 158.681C59.592 153.938 60.5373 151.118 62.46 149.34C63.0208 148.827 63.6296 148.41 63.9981 148.314C65.328 147.962 66.2412 148.234 67.2667 149.259C68.8529 150.83 70.375 155.22 70.8556 159.61L70.9641 160.586H76.1018ZM60.3611 135.08C60.3611 134.439 59.8324 133.574 59.3036 133.382C58.0379 132.885 56.7882 133.686 54.9616 136.169C53.2793 138.445 50.0108 143.411 48.9213 145.334C47.4472 147.962 46.8384 149.884 47.3351 150.381C47.7837 150.83 48.9052 149.916 50.6196 147.721C53.6798 143.828 55.1699 142.017 57.0285 139.935C59.3517 137.323 60.3611 135.849 60.3611 135.08ZM70.7916 83.0077C74.4126 84.0651 77.1043 87.3176 83.5613 98.4531C85.5961 101.946 86.221 103.132 87.8873 106.464C89.3934 109.46 89.89 110.806 90.1945 112.553C90.6271 115.052 89.3132 117.071 88.0315 115.869C87.5188 115.389 87.3746 115.1 86.5735 112.809C85.2757 109.124 83.6254 105.823 80.5491 100.68C75.2137 91.8039 71.7529 88.0387 68.901 88.0387C67.4429 88.0387 66.7059 88.6635 66.2893 90.2818C66.1932 90.6823 65.9529 91.163 65.7766 91.3552C65.4722 91.6917 65.4241 91.6917 64.9755 91.4674C64.6551 91.3072 64.3507 90.9066 64.0783 90.3138C63.6938 89.5127 63.6457 89.2083 63.6457 87.7983C63.6617 86.3884 63.7098 86.1 64.0783 85.395C64.6391 84.3375 65.5683 83.4563 66.5457 83.0718C67.5391 82.6872 69.5739 82.6552 70.7916 83.0077Z" fill="#FED322"/>
</mask>
<g mask="url(#mask1_678_148)">
<path d="M128.337 140.808C127.274 142.297 127.894 145.328 128.337 146.657C121.025 153.723 91.1486 155.857 61.5967 156.496C76.7529 142.403 70.1055 92.4141 68.2442 87.8939C66.7551 84.2776 63.1921 84.6144 61.5967 85.2349C57.9805 87.9376 46.368 90.2777 41.5473 89.1516C45.6019 87.0244 46.7934 74.9867 47.1491 68.8784C58.4594 69.732 65.0405 64.2374 66.117 63.6971C74.413 60.5064 82.1595 64.3176 84.9958 66.622C86.095 66.2109 86.8952 66.622 88.4957 64.3436C92.4711 66.4842 97.3093 68.7832 102.1 68.8784C109.847 69.0323 117.038 65.9441 117.038 65.9441C117.038 67.8114 117.305 68.4402 117.435 68.4833C119.439 69.1451 125.04 71.5145 125.678 73.0036C126.316 74.4926 128.958 76.283 130.199 76.992C135.516 80.3955 138.973 89.2234 140.037 93.2118C141.1 97.0867 139.594 102.272 138.707 104.38C135.782 115.813 129.667 138.946 128.337 140.808Z" fill="#130058"/>
</g>
</g>
<path d="M42.4137 88.6182C46.0415 86.0574 46.9485 75.4584 46.9485 70.479C45.668 79.8687 41.7912 86.4842 40.0129 88.6182C40.4397 88.8316 41.7912 88.7071 42.4137 88.6182Z" fill="#DE811B"/>
<path d="M113.637 61.9426C111.236 66.2107 96.2977 65.2326 89.0953 64.6101C88.8286 64.6101 89.5399 63.8988 89.6288 63.5431C100.512 64.1833 110.524 61.3202 114.17 59.8086C113.53 60.2354 113.548 61.4091 113.637 61.9426Z" fill="#F09A3E"/>
<path d="M99.4793 24.306C88.3052 25.7908 83.1399 35.6745 87.3564 40.5468C102.378 27.0901 110.109 33.1224 117.137 34.9784C120.563 32.6583 118.191 29.1008 117.927 27.0901C109.23 23.8419 113.447 22.4499 99.4793 24.306Z" fill="#673F2A"/>
<path d="M117.371 35.267C99.232 32.2793 89.8067 38.1129 87.2281 40.6026C94.9639 31.533 104.034 26.9983 117.371 34.2V35.267Z" fill="#5D341F"/>
<path d="M113.37 38.7354C113.37 40.0613 105.093 40.3359 103.767 40.3359C99.7655 40.3359 91.2294 45.3964 91.2294 44.0705C92.0297 40.3359 102.441 36.8682 103.767 36.8682C105.093 36.8682 113.37 37.4095 113.37 38.7354Z" fill="#F09A3E"/>
<path d="M98.4679 33.1622C91.0634 36.4776 86.144 43.2106 85.0941 46.4155C85.5582 37.088 94.3512 33.503 98.1363 32.6097C101.187 28.3217 103.957 25.9788 104.961 25.3434C107.193 22.2932 112.651 21.77 115.1 21.8897C118.775 21.8621 128.058 23.4093 127.92 26.4761C127.799 29.1711 121.492 32.4715 118.499 33.7977C113.724 29.8633 103.156 31.7347 98.4679 33.1622Z" fill="#002356"/>
<path d="M94.5169 24.1829C82.4985 29.2666 80.784 35.2258 85.0941 46.4154C85.7572 39.2982 93.9644 33.9082 98.1087 32.6372C101.479 28.4653 106.508 23.1883 109.381 22.5804C103.883 21.3648 97.0588 23.1791 94.5169 24.1829Z" fill="#003581"/>
<path d="M29.8763 70.2122C29.6095 69.1451 30.9433 66.033 32.0103 64.6104C27.1021 67.3846 28.1869 70.9235 29.3428 72.3462C35.5315 75.1204 38.3235 72.4351 38.9459 70.7457C37.3453 71.0124 33.0773 70.7457 29.8763 70.2122Z" fill="#E89A47"/>
<path d="M19.2062 68.0782C20.2732 66.1575 20.7178 60.3423 20.8067 57.6748C20.7089 60.6091 16.2719 65.1439 16.0051 71.8127C16.6276 71.3681 18.1392 69.9988 19.2062 68.0782Z" fill="#E89A47"/>
<path d="M173.87 134.732C167.041 134.305 149.151 114.992 141.06 105.389L135.545 99.2234L17.9074 49.0739C17.9074 49.0739 6.70535 43.7694 3.14866 42.4356C-24.0601 43.2359 -44.8668 32.5657 -54.2032 26.1637C-61.6722 21.042 -60.3385 13.8931 -58.7379 10.9588C-25.3939 -12.2487 -4.05367 29.3647 4.48242 36.567C9.81747 37.634 12.0389 41.0713 13.6394 41.338L32.2247 49.3712L65.8355 63.5091L139.993 93.1186C148.796 93.9188 151.284 96.0223 151.284 96.0223C188.096 114.161 182.406 135.265 173.87 134.732Z" fill="black"/>
<path d="M173.691 125.098C176.038 119.336 159.731 103.313 151.284 96.0222C169.69 103.491 183.32 119.836 179.56 130.433C176.625 138.703 168.623 133.456 165.155 129.9C167.022 130.7 171.344 130.86 173.691 125.098Z" fill="#575757"/>
<path d="M173.157 134.744C175.647 133.677 179.56 129.537 179.56 122.431C181.427 126.699 179.986 136.665 173.157 134.744Z" fill="#777777"/>
<path d="M138.48 95.2219C137.413 93.7281 102.824 78.7722 85.6626 71.481L140.08 93.0879C146.909 93.9415 149.416 94.5211 151.284 96.0222C162.167 104.772 168.356 112.828 170.223 115.762C174.278 120.67 174.224 124.031 173.691 125.098C171.023 132.034 165.688 130.167 165.155 129.9C164.728 129.686 160.175 125.543 157.953 123.498C164.621 128.033 165.955 126.965 168.089 126.965C169.796 126.965 169.334 124.654 168.889 123.498C166.329 114.962 156.797 104.114 152.351 99.7567C148.936 96.3423 141.681 95.3109 138.48 95.2219Z" fill="#292929"/>
<path d="M-33.3091 13.3288C-41.205 10.7679 -54.2047 15.8185 -59.7176 18.6638C-60.998 15.4627 -59.5398 11.995 -58.6506 10.6613C-26.3736 -12.0126 -5.03335 27.4665 4.56975 36.5363C3.92954 37.3899 2.16897 36.3585 1.36871 35.736C-2.09907 31.7348 -23.4393 16.5298 -33.3091 13.3288Z" fill="#575757"/>
<path d="M6.43709 37.0699C1.10204 42.6726 -39.4444 6.12685 -53.3155 26.6658C-57.7969 24.3177 -59.4508 20.353 -59.7175 18.6642C-55.4495 15.4631 -39.9779 10.1279 -31.4418 13.8626C-15.4366 21.5984 0.568533 34.4024 1.36879 35.7363C1.68875 36.2697 4.12523 36.8923 4.56982 36.5366L6.43709 37.0699Z" fill="#292929"/>
</g>
</svg>
