<svg width="207" height="205" viewBox="0 0 207 205" fill="none" xmlns="http://www.w3.org/2000/svg">
<g clip-path="url(#clip0_1278_4)">
<path d="M187.687 196.803C161.817 198.996 69.6926 179.367 26.0269 175.531C44.8817 170.927 49.5954 170.629 50.4176 168.985C55.4602 168.765 57.4516 165.239 57.817 163.504C79.1343 163.012 122.736 160.295 126.604 153.364C131.208 154.021 136.561 156.744 138.662 158.023C169.446 163.504 187.899 170.232 190 171.146L187.687 196.803Z" fill="#004990"/>
<path d="M187.687 196.803C173.831 198.563 137.191 192.771 120.604 189.655C166.133 192.294 175.132 174.992 173.941 166.011C182.299 168.21 188.164 170.3 189.997 171.124C189.117 184.101 188.054 193.687 187.687 196.803Z" fill="#0361BD"/>
<path d="M187.687 196.803C183.948 198.563 161.935 196.07 151.396 194.604C164.593 195.978 178.889 191.579 180.814 189.93C182.354 188.61 184.205 175.578 184.938 169.255C187.962 170.135 188.897 170.666 189.997 171.124C189.395 181.186 188.809 186.911 187.687 196.803Z" fill="#1D7EDD"/>
<path d="M138.749 158.038C134.35 155.398 129.677 153.639 126.652 153.364C122.473 160.182 79.0889 162.986 57.9191 163.536C56.5445 167.11 52.6954 168.852 50.4959 169.035C55.1698 169.127 71.3358 169.805 98.6091 171.784C125.882 173.764 136.733 163.445 138.749 158.038Z" fill="#0361BD"/>
<path d="M126.652 153.364C121.429 158.038 109.515 159.412 101.084 160.512C124.178 161.612 130.318 156.755 130.501 154.189C129.622 153.749 127.569 153.455 126.652 153.364Z" fill="#1D7EDD"/>
<path d="M161.451 167.418C161.411 167.872 154.754 167.181 154.3 167.141C153.846 167.101 146.539 164.363 146.579 163.909C146.619 163.455 154.342 164.588 154.796 164.628C155.249 164.667 161.491 166.964 161.451 167.418Z" fill="#0361BD"/>
<path d="M59.3962 178.415C59.3962 178.87 53.7447 177.708 53.2892 177.708C52.8337 177.708 44.2749 176.671 44.2749 176.215C44.2749 175.76 52.0674 176.215 52.5229 176.215C52.9784 176.215 59.3962 177.959 59.3962 178.415Z" fill="#0058AF"/>
<path d="M125.278 178.836C117.579 182.507 95.1267 180.028 81.5633 178.836C89.5364 181.586 121.703 186.095 128.027 183.814C132.976 182.03 138.149 172.699 125.278 178.836Z" fill="#0051A1"/>
<path d="M36.9561 94.0357C39.7054 92.6611 42.2898 86.5576 42.7297 73.1409C38.0558 77.5398 35.3064 91.5614 36.9561 94.0357Z" fill="#B14E0B"/>
<path d="M114.762 70.1166C110.088 73.4158 96.3415 77.5398 85.3442 68.467C92.1258 68.467 107.504 68.797 114.762 70.1166Z" fill="#B14E0B"/>
<path d="M126.476 147.371C125.379 148.906 126.019 152.03 126.476 153.401C118.939 160.682 88.1465 162.882 57.6884 163.54C73.3094 149.016 66.4581 97.4939 64.5398 92.835C63.0051 89.1079 59.3328 89.455 57.6884 90.0945C40.1491 96.891 20.6 91.8301 13.0179 88.4502C11.1909 84.7048 8.63308 75.4053 13.0179 68.1703C18.4989 59.1266 13.292 57.4823 13.0179 57.2082C12.7987 56.989 12.9266 54.5591 13.0179 53.3715C13.0934 52.1846 9.79068 49.8846 8.08497 48.51C6.72041 47.4102 7.5164 45.9944 8.08497 45.424C9.72929 45.6981 11.0995 44.0537 13.0179 42.6835C14.5526 41.5873 17.4941 44.6019 18.773 46.2462C21.5135 44.3278 23.98 45.9721 25.8984 46.2462C27.4331 46.4654 27.8167 51.0878 27.8167 53.3715L27.1115 68.5801C26.2867 69.9547 24.6921 73.034 24.912 74.3536C25.187 76.0032 55.5185 76.0104 62.3473 67.8963C70.8978 64.6077 78.8818 68.5358 81.805 70.9109C88.9304 70.0887 87.8342 60.7709 87.012 58.8526C86.5669 57.814 81.805 56.9342 82.9012 55.838C83.9975 54.7418 82.0791 50.3569 81.805 49.5348C81.531 48.7126 82.6272 44.8759 83.9975 44.0537C83.9975 36.6543 87.5601 25.1441 102.359 26.5144C114.198 27.6106 115.879 38.6641 115.239 44.0537C113.924 44.9307 115.788 48.6213 116.884 50.3569C116.007 51.6724 114.874 56.0207 114.417 58.0304C112.444 59.5651 111.768 62.5066 111.677 63.7855C109.923 66.4164 113.321 70.9109 115.239 72.8292C117.797 73.7427 123.077 75.9534 123.735 77.4881C124.393 79.0228 127.115 80.8681 128.394 81.5989C133.875 85.1068 137.438 94.2053 138.534 98.3161C139.63 102.31 138.077 107.654 137.164 109.826C134.149 121.611 127.846 145.453 126.476 147.371Z" fill="#F4A44E"/>
<path d="M126.407 147.276C125.311 148.811 125.951 151.935 126.407 153.305C118.871 160.587 88.0784 162.786 57.6203 163.445C73.2413 148.92 66.39 97.3983 64.4716 92.7395C62.9369 89.0123 59.2646 89.3595 57.6203 89.9989C53.8932 92.7845 41.9246 95.1964 36.956 94.0357C41.135 91.8433 42.3631 79.4365 42.7296 73.1409C54.3868 74.0206 61.1697 68.3576 62.2792 67.8007C70.8296 64.5121 78.8137 68.4402 81.7369 70.8153C82.8698 70.3915 83.6946 70.8153 85.3442 68.467C89.4415 70.6732 94.428 73.0427 99.3657 73.1409C107.35 73.2995 114.762 70.1166 114.762 70.1166C114.762 72.0411 115.037 72.6893 115.171 72.7337C117.236 73.4158 123.009 75.8579 123.667 77.3926C124.325 78.9272 127.047 80.7725 128.326 81.5033C133.807 85.0112 137.369 94.1097 138.466 98.2205C139.562 102.214 138.009 107.558 137.095 109.731C134.081 121.515 127.778 145.358 126.407 147.276Z" fill="#FF9249"/>
<path d="M126.377 153.421C121.319 160.899 81.0135 163.044 57.6442 163.319C114.61 160.679 128.485 107.599 128.302 81.3889C140.949 93.7609 139.849 105.033 137.1 109.707C134.075 121.346 127.752 145.063 126.652 146.823C125.553 148.582 126.011 151.955 126.377 153.421Z" fill="#FF812C"/>
<path d="M71.6658 104.208C71.8857 110.147 69.283 117.038 67.5418 119.879C67.5418 117.68 66.1671 99.5344 65.0674 95.1354C64.1543 91.483 61.9515 89.9117 60.6685 89.6367C60.8517 89.4534 61.8782 89.1418 64.5175 89.3618C67.8167 89.6367 71.3908 96.785 71.6658 104.208Z" fill="#FF802C"/>
<path d="M81.8383 73.4158C85.5773 74.0757 87.6118 71.308 88.1617 69.8417L85.4124 68.467C84.3127 69.5668 82.5714 70.3916 81.5633 70.6665C81.1234 70.0067 78.9056 69.0169 77.7143 68.467C79.6938 69.7867 81.2884 72.3161 81.8383 73.4158Z" fill="#FF802C"/>
<path d="M62.8679 67.6423C62.9596 69.8417 60.0086 74.0207 47.4717 73.1409C57.3693 72.0412 62.0431 67.3672 62.8679 67.6423Z" fill="#FF802C"/>
<path d="M126.377 153.421C124.728 157.82 103.741 160.936 95.8598 161.394C121.154 157.215 131.051 125.103 137.1 109.707L132.151 129.227L128.852 140.499L126.652 146.823C125.772 147.923 126.102 151.68 126.377 153.421Z" fill="#FB6400"/>
<path fill-rule="evenodd" clip-rule="evenodd" d="M73.8652 99.161L76.3734 94.8168V96.7715L74.7116 99.6497L73.8652 99.161ZM78.0273 93.9068L76.3734 96.7715V101.491H78.0274V95.2001H78.0274L81.689 101.542H83.5989L79.9373 95.2001H81.6862V95.2003H83.5908V95.2001H81.6862V93.2954H83.5908V93.166L84.6935 94.3485V101.491H86.3475V96.1222L88.1251 98.0284L88.7116 97.4815L86.3475 94.9463V89.6368H84.6935V93.1726L83.5908 91.9901V91.5414H83.5908V89.6368H83.5908V91.5414H83.1724L82.0973 90.3885L81.6862 90.7719V89.6368H80.4926L81.8309 87.3188L80.9845 86.8301L79.364 89.6368H78.0274V91.5414H78.2644L78.0274 91.952V89.6369H76.3734V94.8168L78.0274 91.952V93.2954H78.0273V93.9068ZM78.0274 93.9067V93.2954H78.3803L78.0274 93.9067ZM79.393 91.5414L78.3803 93.2954H81.6862V91.5414H82.0759L83.5908 93.166V91.9901L83.1724 91.5414H82.0759L81.6862 91.1235V90.7719L81.5108 90.9354L81.6862 91.1235V91.5414H79.393ZM79.393 91.5414L80.4926 89.6368H79.364L78.2644 91.5414H79.393ZM78.0274 93.9067L78.0273 93.9068V95.2001H78.0274V93.9067ZM84.6935 93.1726V94.3485L86.3475 96.1222V94.9463L84.6935 93.1726ZM79.9373 95.2001L79.4598 94.373L78.0274 95.2L78.0274 95.2001H79.9373Z" fill="#FB6400"/>
<path d="M113.455 70.6665C100.919 76.6051 89.9029 71.8579 85.9622 68.742C100.534 69.8417 109.698 69.0169 111.256 65.9927C111.036 67.0924 112.631 69.5668 113.455 70.6665Z" fill="#E78419"/>
<path d="M114.555 70.1167C103.118 76.2752 91.8275 72.4995 87.6118 69.8418L85.6873 72.3162C99.324 79.5744 111.073 73.4159 114.555 70.1167Z" fill="#FF802C"/>
<path d="M37.849 93.4859C41.5881 90.8466 42.5229 79.9226 42.5229 74.7905C41.2032 84.4682 37.2075 91.2865 35.3746 93.4859C35.8145 93.7059 37.2075 93.5776 37.849 93.4859Z" fill="#DE811B"/>
<path d="M111.256 65.9927C108.782 70.3916 93.3854 69.3835 85.9622 68.742C85.6873 68.742 86.4204 68.0088 86.5121 67.6423C97.7293 68.3021 108.048 65.3512 111.806 63.7932C111.146 64.2331 111.164 65.4428 111.256 65.9927Z" fill="#F09A3E"/>
<path d="M96.6845 24.7527C85.0273 26.5123 79.6388 38.2244 84.0376 43.998C99.7089 28.0519 107.774 35.2001 115.105 37.3996C118.679 34.6502 116.205 30.4346 115.93 28.0519C106.857 24.2029 111.256 22.5533 96.6845 24.7527Z" fill="#673F2A"/>
<path d="M115.105 38.4987C96.4097 35.4194 86.6954 41.4319 84.0377 43.9979C92.0107 34.6502 101.358 29.9764 115.105 37.3989V38.4987Z" fill="#5D341F"/>
<path d="M115.93 28.0524C116.205 29.152 116.48 29.977 116.48 30.8017C115.215 31.0318 112.091 29.8687 108.782 28.3659C105.762 26.9945 94.6157 26.9898 92.5606 25.8529C98.8841 23.3783 107.682 22.8284 109.881 24.7533C111.256 25.303 114.372 27.4109 115.93 28.0524Z" fill="#704A36"/>
<path d="M110.981 42.0735C110.981 43.44 102.45 43.723 101.084 43.723C96.9595 43.723 88.1617 48.9387 88.1617 47.5721C88.9865 43.723 99.717 40.1489 101.084 40.1489C102.45 40.1489 110.981 40.7069 110.981 42.0735Z" fill="#F09A3E"/>
<path d="M24.9272 74.5155C24.6523 73.4158 26.027 70.2083 27.1267 68.7419C22.068 71.6012 23.186 75.2487 24.3774 76.715C30.7558 79.5743 33.6335 76.8066 34.275 75.0654C32.6253 75.3403 28.2264 75.0654 24.9272 74.5155Z" fill="#E89A47"/>
<path d="M13.9299 72.3161C15.0296 70.3366 15.4879 64.3431 15.5795 61.5938C15.4787 64.618 10.9056 69.2919 10.6307 76.1652C11.2722 75.707 12.8302 74.2956 13.9299 72.3161Z" fill="#E89A47"/>
<path d="M173.337 141.014C166.299 140.574 147.86 120.669 139.52 110.771L133.837 104.416L12.5913 52.729C12.5913 52.729 1.04574 47.2618 -2.62003 45.8872C-30.6631 46.712 -52.1079 35.7146 -61.7305 29.1162C-69.4286 23.8375 -68.054 16.4694 -66.4044 13.4451C-32.0378 -10.4741 -10.0432 32.4154 -1.24537 39.8386C4.25328 40.9384 6.54282 44.481 8.19242 44.7559L27.3476 53.0354L61.9891 67.6068L138.42 98.1243C147.493 98.9491 150.058 101.117 150.058 101.117C187.998 119.813 182.135 141.564 173.337 141.014Z" fill="black"/>
<path d="M173.152 131.085C175.571 125.146 158.764 108.632 150.058 101.117C169.028 108.815 183.076 125.661 179.2 136.583C176.176 145.106 167.928 139.699 164.354 136.034C166.279 136.858 170.733 137.023 173.152 131.085Z" fill="#575757"/>
<path d="M172.602 141.026C175.168 139.927 179.2 135.66 179.2 128.335C181.125 132.734 179.64 143.006 172.602 141.026Z" fill="#777777"/>
<path d="M136.861 100.292C135.761 98.7529 100.112 83.3383 82.4242 75.8235L138.51 98.093C145.549 98.9728 148.133 99.5701 150.058 101.117C161.275 110.135 167.653 118.438 169.578 121.462C173.757 126.521 173.702 129.985 173.152 131.085C170.403 138.233 164.904 136.309 164.354 136.034C163.914 135.814 159.222 131.543 156.931 129.435C163.804 134.109 165.179 133.009 167.378 133.009C169.138 133.009 168.661 130.627 168.203 129.435C165.564 120.637 155.74 109.457 151.157 104.966C147.638 101.447 140.16 100.384 136.861 100.292Z" fill="#292929"/>
<path d="M0.769249 40.357C-4.7294 46.1316 -46.5191 8.46516 -60.8156 29.6339C-65.4345 27.2138 -67.1391 23.1276 -67.414 21.3869C-63.0151 18.0877 -47.069 12.5889 -38.2712 16.4381C-21.7752 24.4112 -5.27927 37.6078 -4.45447 38.9826C-4.1247 39.5323 -1.61349 40.174 -1.15527 39.8074L0.769249 40.357Z" fill="#292929"/>
</g>
<defs>
<clipPath id="clip0_1278_4">
<rect width="207" height="204.33" fill="white"/>
</clipPath>
</defs>
</svg>
