<svg width="193" height="176" viewBox="0 0 193 176" fill="none" xmlns="http://www.w3.org/2000/svg">
<g clip-path="url(#clip0_593_69)">
<path d="M190.687 174.803C164.817 176.996 72.6926 157.367 29.0269 153.531C47.8817 148.927 52.5954 148.629 53.4176 146.985C58.4602 146.765 60.4516 143.239 60.817 141.504C82.1343 141.012 125.736 138.295 129.604 131.364C134.208 132.021 139.561 134.744 141.662 136.023C172.446 141.504 190.899 148.232 193 149.146L190.687 174.803Z" fill="#004990"/>
<path d="M190.687 174.803C176.831 176.563 140.191 170.771 123.604 167.655C169.133 170.294 178.132 152.992 176.941 144.011C185.299 146.21 191.164 148.3 192.997 149.124C192.117 162.101 191.054 171.687 190.687 174.803Z" fill="#0361BD"/>
<path d="M190.687 174.803C186.948 176.563 164.935 174.07 154.396 172.604C167.593 173.978 181.889 169.579 183.814 167.93C185.354 166.61 187.205 153.578 187.938 147.255C190.962 148.135 191.897 148.666 192.997 149.124C192.395 159.186 191.809 164.911 190.687 174.803Z" fill="#1D7EDD"/>
<path d="M141.749 136.038C137.35 133.398 132.677 131.639 129.652 131.364C125.473 138.182 82.0889 140.986 60.9191 141.536C59.5445 145.11 55.6954 146.852 53.4959 147.035C58.1698 147.127 74.3358 147.805 101.609 149.784C128.882 151.764 139.733 141.445 141.749 136.038Z" fill="#0361BD"/>
<path d="M129.652 131.364C124.429 136.038 112.515 137.412 104.084 138.512C127.178 139.612 133.318 134.755 133.501 132.189C132.622 131.749 130.569 131.455 129.652 131.364Z" fill="#1D7EDD"/>
<path d="M164.451 145.418C164.411 145.872 157.754 145.181 157.3 145.141C156.846 145.101 149.539 142.363 149.579 141.909C149.619 141.455 157.342 142.588 157.796 142.628C158.249 142.667 164.491 144.964 164.451 145.418Z" fill="#0361BD"/>
<path d="M62.3962 156.415C62.3962 156.87 56.7447 155.708 56.2892 155.708C55.8337 155.708 47.2749 154.671 47.2749 154.215C47.2749 153.76 55.0674 154.215 55.5229 154.215C55.9784 154.215 62.3962 155.959 62.3962 156.415Z" fill="#0058AF"/>
<path d="M128.278 156.836C120.579 160.507 98.1267 158.028 84.5633 156.836C92.5364 159.586 124.703 164.095 131.027 161.814C135.976 160.03 141.149 150.699 128.278 156.836Z" fill="#0051A1"/>
<path d="M39.9561 72.0357C42.7054 70.6611 45.2898 64.5576 45.7297 51.1409C41.0558 55.5398 38.3064 69.5614 39.9561 72.0357Z" fill="#B14E0B"/>
<path d="M117.762 48.1166C113.088 51.4158 99.3415 55.5398 88.3442 46.467C95.1258 46.467 110.504 46.797 117.762 48.1166Z" fill="#B14E0B"/>
<path d="M129.476 125.371C128.379 126.906 129.019 130.03 129.476 131.401C121.939 138.682 91.1465 140.882 60.6884 141.54C76.3094 127.016 69.4581 75.4939 67.5398 70.835C66.0051 67.1079 62.3328 67.455 60.6884 68.0945C43.1491 74.891 23.6 69.8301 16.0179 66.4502C14.1909 62.7048 11.6331 53.4053 16.0179 46.1703C21.499 37.1266 16.292 35.4823 16.0179 35.2082C15.7987 34.989 15.9266 32.5591 16.0179 31.3715C16.0934 30.1846 12.7907 27.8846 11.085 26.51C9.72041 25.4102 10.5164 23.9944 11.085 23.424C12.7293 23.6981 14.0995 22.0537 16.0179 20.6835C17.5526 19.5873 20.4941 22.6019 21.773 24.2462C24.5135 22.3278 26.98 23.9721 28.8984 24.2462C30.4331 24.4654 30.8167 29.0878 30.8167 31.3715L30.1115 46.5801C29.2867 47.9547 27.6921 51.034 27.912 52.3536C28.187 54.0032 58.5185 54.0104 65.3473 45.8963C73.8978 42.6077 81.8818 46.5358 84.805 48.9109C91.9304 48.0887 90.8342 38.7709 90.012 36.8526C89.5669 35.814 84.805 34.9342 85.9012 33.838C86.9975 32.7418 85.0791 28.3569 84.805 27.5348C84.531 26.7126 85.6272 22.8759 86.9975 22.0537C86.9975 14.6543 90.5601 3.14411 105.359 4.51437C117.198 5.61058 118.879 16.6641 118.239 22.0537C116.924 22.9307 118.788 26.6213 119.884 28.3569C119.007 29.6724 117.874 34.0207 117.417 36.0304C115.444 37.5651 114.768 40.5066 114.677 41.7855C112.923 44.4164 116.321 48.9109 118.239 50.8292C120.797 51.7427 126.077 53.9534 126.735 55.4881C127.393 57.0228 130.115 58.8681 131.394 59.5989C136.875 63.1068 140.438 72.2053 141.534 76.3161C142.63 80.3097 141.077 85.6536 140.164 87.8263C137.149 99.6105 130.846 123.453 129.476 125.371Z" fill="#F4A44E"/>
<path d="M129.407 125.276C128.311 126.811 128.951 129.935 129.407 131.305C121.871 138.587 91.0784 140.786 60.6203 141.445C76.2413 126.92 69.39 75.3983 67.4716 70.7395C65.9369 67.0123 62.2646 67.3595 60.6203 67.9989C56.8932 70.7845 44.9246 73.1964 39.956 72.0357C44.135 69.8433 45.363 57.4365 45.7296 51.1409C57.3868 52.0206 64.1697 46.3576 65.2792 45.8007C73.8296 42.5121 81.8137 46.4402 84.7369 48.8153C85.8698 48.3915 86.6946 48.8153 88.3442 46.467C92.4415 48.6732 97.428 51.0427 102.366 51.1409C110.35 51.2995 117.762 48.1166 117.762 48.1166C117.762 50.0411 118.037 50.6893 118.171 50.7337C120.236 51.4158 126.009 53.8579 126.667 55.3926C127.325 56.9272 130.047 58.7725 131.326 59.5033C136.807 63.0112 140.369 72.1097 141.466 76.2205C142.562 80.2142 141.009 85.558 140.095 87.7307C137.081 99.515 130.778 123.358 129.407 125.276Z" fill="#FF9249"/>
<path d="M129.377 131.421C124.319 138.899 84.0135 141.044 60.6442 141.319C117.61 138.679 131.485 85.5992 131.302 59.3889C143.949 71.7609 142.849 83.0331 140.1 87.707C137.075 99.3458 130.752 123.063 129.652 124.823C128.553 126.582 129.011 129.955 129.377 131.421Z" fill="#FF812C"/>
<path d="M74.6657 82.2082C74.8857 88.1467 72.283 95.0383 70.5418 97.8793C70.5418 95.6799 69.1671 77.5344 68.0674 73.1354C67.1542 69.483 64.9515 67.9117 63.6684 67.6367C63.8517 67.4534 64.8781 67.1418 67.5175 67.3618C70.8167 67.6367 74.3908 74.785 74.6657 82.2082Z" fill="#FF802C"/>
<path d="M84.8383 51.4158C88.5773 52.0757 90.6118 49.308 91.1617 47.8417L88.4124 46.467C87.3126 47.5668 85.5714 48.3916 84.5633 48.6665C84.1234 48.0067 81.9056 47.0169 80.7143 46.467C82.6938 47.7867 84.2884 50.3161 84.8383 51.4158Z" fill="#FF802C"/>
<path d="M65.8679 45.6423C65.9595 47.8417 63.0086 52.0207 50.4717 51.1409C60.3693 50.0412 65.0431 45.3672 65.8679 45.6423Z" fill="#FF802C"/>
<path d="M129.377 131.421C127.728 135.82 106.741 138.936 98.8598 139.394C124.154 135.215 134.051 103.103 140.1 87.707L135.151 107.227L131.852 118.499L129.652 124.823C128.772 125.923 129.102 129.68 129.377 131.421Z" fill="#FB6400"/>
<path fill-rule="evenodd" clip-rule="evenodd" d="M76.8652 77.161L79.3733 72.8168V74.7715L77.7116 77.6497L76.8652 77.161ZM81.0273 71.9068L79.3733 74.7715V79.4906H81.0273V73.2001H81.0274L84.689 79.5421H86.5989L82.9373 73.2001H84.6861V73.2003H86.5908V73.2001H84.6861V71.2954H86.5908V71.166L87.6935 72.3485V79.4905H89.3475V74.1222L91.1251 76.0284L91.7116 75.4815L89.3475 72.9463V67.6368H87.6935V71.1726L86.5908 69.9901V69.5414H86.5908V67.6368H86.5908V69.5414H86.1724L85.0972 68.3885L84.6861 68.7719V67.6368H83.4926L84.8309 65.3188L83.9845 64.8301L82.364 67.6368H81.0274V69.5414H81.2644L81.0273 69.952V67.6369H79.3733V72.8168L81.0273 69.952V71.2954H81.0273V71.9068ZM81.0273 71.9067V71.2954H81.3803L81.0273 71.9067ZM82.3929 69.5414L81.3803 71.2954H84.6861V69.5414H85.0759L86.5908 71.166V69.9901L86.1724 69.5414H85.0759L84.6861 69.1235V68.7719L84.5107 68.9354L84.6861 69.1235V69.5414H82.3929ZM82.3929 69.5414L83.4926 67.6368H82.364L81.2644 69.5414H82.3929ZM81.0273 71.9067L81.0273 71.9068V73.2001H81.0273V71.9067ZM87.6935 71.1726V72.3485L89.3475 74.1222V72.9463L87.6935 71.1726ZM82.9373 73.2001L82.4598 72.373L81.0274 73.2L81.0274 73.2001H82.9373Z" fill="#FB6400"/>
<path d="M116.455 48.6665C103.919 54.6051 92.9029 49.8579 88.9622 46.742C103.534 47.8417 112.698 47.0169 114.256 43.9927C114.036 45.0924 115.631 47.5668 116.455 48.6665Z" fill="#E78419"/>
<path d="M117.555 48.1167C106.118 54.2752 94.8275 50.4995 90.6118 47.8418L88.6873 50.3162C102.324 57.5744 114.073 51.4159 117.555 48.1167Z" fill="#FF802C"/>
<path d="M40.849 71.4859C44.5881 68.8466 45.5229 57.9226 45.5229 52.7905C44.2032 62.4682 40.2075 69.2865 38.3746 71.4859C38.8145 71.7059 40.2075 71.5776 40.849 71.4859Z" fill="#DE811B"/>
<path d="M114.256 43.9927C111.782 48.3916 96.3854 47.3835 88.9622 46.742C88.6873 46.742 89.4204 46.0088 89.5121 45.6423C100.729 46.3021 111.048 43.3512 114.806 41.7932C114.146 42.2331 114.164 43.4428 114.256 43.9927Z" fill="#F09A3E"/>
<path d="M99.6845 2.75272C88.0274 4.51229 82.6388 16.2244 87.0376 21.998C102.709 6.05191 110.774 13.2001 118.105 15.3996C121.679 12.6502 119.205 8.43462 118.93 6.05191C109.857 2.20285 114.256 0.553258 99.6845 2.75272Z" fill="#673F2A"/>
<path d="M118.105 16.4987C99.4097 13.4194 89.6954 19.4319 87.0377 21.9979C95.0107 12.6502 104.358 7.97641 118.105 15.3989V16.4987Z" fill="#5D341F"/>
<path d="M118.93 6.05238C119.205 7.15199 119.48 7.977 119.48 8.80171C118.215 9.03176 115.091 7.86871 111.782 6.36587C108.762 4.99451 97.6157 4.98976 95.5606 3.85286C101.884 1.37828 110.682 0.828362 112.881 2.75328C114.256 3.30303 117.372 5.41087 118.93 6.05238Z" fill="#704A36"/>
<path d="M113.981 20.0735C113.981 21.44 105.45 21.723 104.084 21.723C99.9595 21.723 91.1617 26.9387 91.1617 25.5721C91.9865 21.723 102.717 18.1489 104.084 18.1489C105.45 18.1489 113.981 18.7069 113.981 20.0735Z" fill="#F09A3E"/>
<path d="M27.9272 52.5155C27.6523 51.4158 29.027 48.2083 30.1267 46.7419C25.068 49.6012 26.186 53.2487 27.3774 54.715C33.7558 57.5743 36.6335 54.8066 37.275 53.0654C35.6253 53.3403 31.2264 53.0654 27.9272 52.5155Z" fill="#E89A47"/>
<path d="M16.9299 50.3161C18.0296 48.3366 18.4879 42.3431 18.5795 39.5938C18.4787 42.618 13.9056 47.2919 13.6307 54.1652C14.2722 53.707 15.8302 52.2956 16.9299 50.3161Z" fill="#E89A47"/>
<path d="M176.337 119.014C169.299 118.574 150.86 98.6688 142.52 88.7712L136.837 82.4163L15.5913 30.729C15.5913 30.729 4.04574 25.2618 0.379974 23.8872C-27.6631 24.712 -49.1079 13.7146 -58.7305 7.11623C-66.4286 1.83752 -65.054 -5.53064 -63.4044 -8.55488C-29.0378 -32.4741 -7.04321 10.4154 1.75463 17.8386C7.25328 18.9384 9.54282 22.481 11.1924 22.7559L30.3476 31.0354L64.9891 45.6068L141.42 76.1243C150.493 76.9491 153.058 79.1171 153.058 79.1171C190.998 97.8125 185.135 119.564 176.337 119.014Z" fill="black"/>
<path d="M176.152 109.085C178.571 103.146 161.764 86.632 153.058 79.1172C172.028 86.8153 186.076 103.661 182.2 114.583C179.176 123.106 170.928 117.699 167.354 114.034C169.279 114.858 173.733 115.023 176.152 109.085Z" fill="#575757"/>
<path d="M175.602 119.026C178.168 117.927 182.2 113.66 182.2 106.335C184.125 110.734 182.64 121.006 175.602 119.026Z" fill="#777777"/>
<path d="M139.861 78.2925C138.761 76.7529 103.112 61.3383 85.4242 53.8235L141.51 76.093C148.549 76.9728 151.133 77.5701 153.058 79.1173C164.275 88.1351 170.653 96.438 172.578 99.4623C176.757 104.521 176.702 107.985 176.152 109.085C173.403 116.233 167.904 114.309 167.354 114.034C166.914 113.814 162.222 109.543 159.931 107.435C166.804 112.109 168.179 111.009 170.378 111.009C172.138 111.009 171.661 108.627 171.203 107.435C168.564 98.6375 158.74 87.4569 154.157 82.9663C150.638 79.4472 143.16 78.3841 139.861 78.2925Z" fill="#292929"/>
<path d="M-37.1957 -6.1119C-45.3337 -8.75126 -58.7321 -3.54587 -64.4141 -0.613254C-65.7337 -3.91253 -64.2308 -7.48655 -63.3143 -8.86116C-30.0475 -32.2304 -8.05288 8.45942 1.8447 17.8073C1.18486 18.6871 -0.6297 17.624 -1.45449 16.9825C-5.02862 12.8585 -27.0232 -2.81271 -37.1957 -6.1119Z" fill="#575757"/>
<path d="M3.76925 18.357C-1.7294 24.1316 -43.5191 -13.5348 -57.8156 7.63394C-62.4345 5.21383 -64.1391 1.12756 -64.414 -0.613067C-60.0151 -3.91231 -44.069 -9.41109 -35.2712 -5.56185C-18.7752 2.41119 -2.27927 15.6078 -1.45447 16.9826C-1.1247 17.5323 1.38651 18.174 1.84473 17.8074L3.76925 18.357Z" fill="#292929"/>
</g>
<defs>
<clipPath id="clip0_593_69">
<rect width="193" height="176" fill="white"/>
</clipPath>
</defs>
</svg>
